<svg xmlns="http://www.w3.org/2000/svg" width="325.061" height="306.084"><g opacity=".089"><path d="M260.742 32.984l-86.3-14.175V0h-27.638v18.63L63.481 33.071 47.406 106.48l27.132 4.68 12.521-57.172 72.8-12.613 77.342 12.7 12.506 57.085 27.128-4.68z" fill="#004882"/><path d="M254.125 306.084H67.957l-19.822-43.99 25.673-9.118L86.67 281.54h149.026l23.318-49.711-99.149-19.9-122.523 25.6L0 145.854l157.148-38.424h5.287l162.626 38.507-19.742 41.632-25.471-9.523 7.422-15.659-127.4-30.167-123.71 30.25 18.8 46.162 102.444-21.4h4.759l135 27.1z" fill="#1c1b6a"/></g></svg>