<svg preserveAspectRatio="none" xmlns="http://www.w3.org/2000/svg" width="1442" height="122"><defs><linearGradient id="b" x1=".5" x2=".5" y2="1" gradientUnits="objectBoundingBox"><stop offset="0" stop-color="#513298"/><stop offset=".315" stop-color="#5276bc"/><stop offset=".685" stop-color="#679ede"/><stop offset="1" stop-color="#209ba5"/></linearGradient><clipPath id="a"><path transform="translate(-696 5839)" fill="#fff" d="M0 0h1442v122H0z"/></clipPath></defs><g transform="translate(696 -5839)" clip-path="url(#a)"><path d="M-1480.568 1087.9l-.965-578.973H-1483l1.433-521.693s10.789 23.738 370.789 23.738c190.44 0 434-40.595 701.549-53.89S-40.568-22.21-40.568-22.21l-1.2 510h1.2v591.665s-9.79-24.738-369.79-24.738c-190.44 0-434 40.594-701.549 53.89-43.765 2.175-83.062 3.084-118.205 3.084-179.705-.002-250.456-23.791-250.456-23.791z" transform="translate(786.568 5885.654)" fill="url(#b)"/></g></svg>