<svg xmlns="http://www.w3.org/2000/svg" width="441.013" height="215.237"><path d="M26.977 14.045h-7.42a.918.918 0 00-.954.954v23.8a.918.918 0 00.954.954h24.274a.918.918 0 00.954-.954v-23.8a.918.918 0 00-.954-.954H33.598c-.583 0-.848-.371-.636-.954l.742-1.908a.689.689 0 01.636-.424h13.413a.918.918 0 00.954-.954V7.314a.918.918 0 00-.954-.954h-6.625c-.795 0-1.007-.424-.583-1.06l.742-1.113a9.707 9.707 0 001.272-2.438.808.808 0 00-.742-.795c-.424-.053-1.113-.265-1.8-.424h-.106a6.147 6.147 0 00-1.7-.318.908.908 0 00-.848.583 55.181 55.181 0 01-2.754 5.243.665.665 0 01-.583.318h-6.254c-.212 0-.212-.053-.106-.212a1 1 0 00.106-.424c0-.9-2.544-4.293-3.233-5.141a1.008 1.008 0 00-.689-.265 7.08 7.08 0 00-1.378.424l-1.274.481h-.1a.983.983 0 00-.636.848 1.116 1.116 0 00.265.689 27.481 27.481 0 011.643 2.65c.318.583.053.954-.583.954h-6.152a.918.918 0 00-.954.954v2.491a.918.918 0 00.954.954h11.713c.53 0 .795.318.689.795l-.371 1.908a.647.647 0 01-.689.583zM5.883 8.533a34.822 34.822 0 013.5 3.71.993.993 0 00.8.424 4.945 4.945 0 001.7-1.113c.689-.53 1.378-1.166 1.643-1.378a.827.827 0 00.371-.689c0-1.06-7.9-7.95-8.9-7.95a3.946 3.946 0 00-1.643.9c-.636.53-1.219 1.06-1.484 1.272a.927.927 0 00-.371.742.993.993 0 00.424.8c1.522 1.268 2.741 2.222 3.96 3.282zm17.755 12.19v-2.014a.64.64 0 01.689-.689h14.471a.64.64 0 01.689.689v2.014a.64.64 0 01-.689.689H24.327a.64.64 0 01-.689-.689zM7.208 38.16c-1.431 1.113-2.91 2.173-4.399 3.233-.8.53-1.643 1.007-2.385 1.59a.974.974 0 00-.424.742 9.148 9.148 0 00.848 2.013c.477.9.954 1.8 1.06 2.067a.933.933 0 00.848.583 1.111 1.111 0 00.583-.212l.106-.106a74.143 74.143 0 006.307-5.406.691.691 0 011.007.053c3.816 4.187 8.692 5.3 14.257 5.565 3.021.159 6.095.159 9.116.159 3.127 0 6.254-.053 9.381-.106h1.961a17 17 0 001.908-.106 1.017 1.017 0 00.848-.8c.159-.477 1.113-3.445 1.113-3.816 0-.583-.53-.795-1.007-.795-5.406.318-10.865.477-16.271.477-1.643 0-3.445 0-5.3-.053-5.035-.153-10.918-.842-13.992-5.404a.983.983 0 01-.106-.371v-15.79a.918.918 0 00-.954-.954H1.643a.918.918 0 00-.954.954v3.074a.907.907 0 00.954.9h5.141a.64.64 0 01.689.689v11.29a.736.736 0 01-.265.53zm16.43-10.335v-2.014a.64.64 0 01.689-.689h14.471a.64.64 0 01.689.689v2.014a.64.64 0 01-.689.689H24.327a.64.64 0 01-.689-.689zm0 7.155v-1.961a.64.64 0 01.689-.689h14.471a.64.64 0 01.689.689v1.961a.64.64 0 01-.689.689H24.327a.64.64 0 01-.689-.689zm60.16-7.261a147.081 147.081 0 0110.388-4.24l2.332-.848c.371-.159.742-.265 1.113-.424s.689-.318.689-.848a9.751 9.751 0 00-.742-1.855c-.318-.8-.742-1.643-.848-1.908a.933.933 0 00-.848-.583c-.265 0-9.381 4.134-12.3 5.512a.7.7 0 01-1.007-.371 7.474 7.474 0 00-6.89-3.763 16.99 16.99 0 00-3.763.477c-1.484.371-1.8 0-1.007-1.325q1.113-1.828 2.067-3.816a.652.652 0 01.583-.371c3.6-.106 7.314-.318 10.971-.689 1.378-.106 3.975-.318 5.247-.583a.925.925 0 00.795-.954V7.897a.948.948 0 00-1.06-.954 128.576 128.576 0 01-13.463 1.325c-.583.053-.848-.318-.689-.848a26.369 26.369 0 00.9-4.028c0-.583-.424-.8-.9-.848l-3.768-.318c-.689-.053-.9.371-1.007.848 0 .159-.053.318-.053.424l-.159.954a29.007 29.007 0 01-.742 3.6.755.755 0 01-.689.477 88.573 88.573 0 01-10.65-.473.967.967 0 00-1.06.9v3.339a.972.972 0 00.795.954h.106l1.219.106h1.325a95.68 95.68 0 005.512.159h.636c.371 0 .53.212.371.583-2.7 5.247-6.625 9.7-10.812 13.886a.985.985 0 00-.371.689 1.073 1.073 0 00.424.742c.53.424 3.286 2.6 3.71 2.6a.927.927 0 00.745-.376c.371-.424.689-.9 1.007-1.325 3.074-3.869 6.678-7.473 12.031-7.473a4.383 4.383 0 013.816 1.8.668.668 0 01-.318.9c-5.248 2.762-11.82 6.843-11.82 13.468 0 7.63 8.321 8.53 14.151 8.53 3.286 0 6.572-.212 9.858-.477.53 0 1.378-.053 2.12-.106.795-.106 1.59-.159 2.067-.265a.89.89 0 00.795-.952c.053-1.272.106-2.544.106-3.763a.928.928 0 00-.9-.9h-.106a85.371 85.371 0 01-13.78 1.219c-3.286 0-8.586 0-8.586-4.134 0-3.18 3.233-5.512 5.989-7.155.636-.371 1.06-.106 1.007.636-.054 1.749-.107 3.445-.107 5.197a.876.876 0 00.954.9h3.392a.918.918 0 00.954-.954l-.159-8.374a.764.764 0 01.429-.691zm39.215 16.219a.887.887 0 00.9.53 48.875 48.875 0 007.791-.954c10.441-1.961 21.2-7.314 21.2-19.133 0-9.381-7.367-14.628-16.43-14.628a43.7 43.7 0 00-11.448 1.749c-3.763 1.007-7.473 2.332-11.183 3.392-1.643.53-3.392.9-5.141 1.378-.371.106-.795.318-.795.8 0 .371 1.537 4.028 1.8 4.664v.102a1.272 1.272 0 00.795.583.319.319 0 00.212-.053l.212-.053h.106c7-2.968 17.7-7.261 25.228-7.261 5.883 0 10.441 3.233 10.441 9.275 0 10.494-13.409 13.674-21.942 14.2-.9.053-1.749.053-2.6.159-.424.053-.954.212-.954.848a15.157 15.157 0 00.795 2.12c.424.9.848 1.8 1.007 2.173zm40.174-27.878c.424.053 1.59.106 2.7.106h2.915c.848 0 1.7 0 2.6-.053.636-.053.9.371.636.954a87.061 87.061 0 01-9.858 17.066c-.053 0-.053.106-.106.159l-.159.477a.319.319 0 00-.053.212 1.17 1.17 0 00.583.742l2.014 1.007a7.685 7.685 0 001.961.9.827.827 0 00.689-.371c.9-1.166 1.7-2.491 2.491-3.763a87.23 87.23 0 008.48-17.649.821.821 0 01.583-.424c2.385-.371 4.664-.795 6.943-1.378h.106l.636-.106c.265-.053.424-.159.636-.212h.106a1.047 1.047 0 00.636-.954l-.106-3.18a.851.851 0 00-.954-.9l-.265.053h-.103c-1.749.424-3.551.9-5.3 1.219-.689.106-.954-.265-.795-.9a37.275 37.275 0 001.325-5.777.89.89 0 00-.795-.954c-1.325-.106-2.862-.371-4.187-.371-.689 0-.848.371-.954.848-.159.848-.159 1.855-.265 2.7a46.686 46.686 0 01-1.06 4.876.674.674 0 01-.583.53 74.904 74.904 0 01-4.876.159c-1.908 0-3.869-.053-5.777-.212a.92.92 0 00-1.007 1.007l.265 3.286a1.021 1.021 0 00.795.9zm30.581-6.1l-1.113 1.643a4.926 4.926 0 00-.848 1.7.861.861 0 00.583.8 90.392 90.392 0 0110.708 6.355c.053.053.106.053.106.106l.477.159a.4.4 0 00.265.053c.318-.053.424-.265.583-.477a23.558 23.558 0 002.332-3.5.974.974 0 00-.424-.742c-1.166-.954-10.865-6.519-11.819-6.519a.963.963 0 00-.85.426zm-5.406 21.306a25.9 25.9 0 00-3.5-.265c-5.247 0-11.183 2.544-11.183 8.586 0 6.148 5.989 8.268 11.236 8.268 5.512 0 9.858-2.438 9.858-8.268v-.636c0-.318.212-.477.53-.265 1.06.636 2.014 1.325 2.968 2.014 1.113.848 2.173 1.749 3.392 2.756.053 0 .053 0 .106.053a.893.893 0 00.636.265.974.974 0 00.742-.424l.106-.106a16.454 16.454 0 011.06-1.8 5.943 5.943 0 00.9-1.749.916.916 0 00-.265-.689h-.106a31.412 31.412 0 00-9.858-6.095.62.62 0 01-.424-.583c-.212-3.657-.424-7.367-.424-10.971a13.773 13.773 0 000-1.484c-.053-.53-.265-1.113-.954-1.113h-3.5a.918.918 0 00-.954.954l.424 10.812c.058.532-.26.797-.79.744zm1.007 5.406a8.207 8.207 0 01.053 1.166c0 3.286-1.8 4.876-5.194 4.876-2.544 0-5.3-.848-5.3-3.6 0-2.65 3.339-3.6 5.671-3.6a16.313 16.313 0 014.24.53.63.63 0 01.53.632zm64.342-34.4a76.295 76.295 0 013.392 5.671.938.938 0 00.742.583h.212l.265-.106c.053 0 .053 0 .106-.053l1.749-.795a.98.98 0 00.583-.9c0-.689-3.339-5.565-3.922-6.307a.855.855 0 00-.742-.371 3.532 3.532 0 00-1.007.318h-.106c-.371.212-.689.371-.9.477 0 0-.106 0-.106.053-.318.159-.583.371-.583.742a.964.964 0 00.212.583zm-5.406.742c-.318.159-.583.371-.583.742a1.137 1.137 0 00.212.636 52.823 52.823 0 013.286 5.83.861.861 0 00.795.583 3.963 3.963 0 001.166-.424c.477-.212.954-.477 1.113-.53a.86.86 0 00.583-.848c0-.636-3.127-5.671-3.71-6.466a.927.927 0 00-.742-.371 3.3 3.3 0 00-.954.318h-.106a7.927 7.927 0 01-.954.477s-.106.007-.106.06zm-8.427 21.472c.8 1.537 1.59 3.074 2.438 4.611.424.742.159 1.166-.689 1.06a75.86 75.86 0 00-4.876-.477.944.944 0 00-1.007.848c-.053.848-.212 1.7-.212 2.491a.925.925 0 00.795.954c1.431.265 2.915.318 4.346.477 2.12.265 4.293.636 6.413 1.007a1.334 1.334 0 001.06-.477 16.231 16.231 0 011.06-1.59v-.052a4.4 4.4 0 00.9-1.7 1.116 1.116 0 00-.265-.689c-.53-.689-1.113-1.272-1.643-2.014a40.988 40.988 0 01-2.7-4.664c-.318-.477-.106-.9.477-1.007a42.578 42.578 0 005.3-1.007 12.97 12.97 0 001.959-.419.909.909 0 00.689-.9 12.876 12.876 0 00-.212-1.749 15 15 0 01-.371-1.749.91.91 0 00-.848-.742h-.106l-.212.053h-.106a76.49 76.49 0 01-8.692 1.8.675.675 0 01-.742-.371q-.875-2.146-1.59-4.452a.641.641 0 01.583-.848 54.032 54.032 0 006.837-1.325.868.868 0 00.689-.9 11.189 11.189 0 00-.159-1.7c-.106-.53-.265-1.166-.318-1.59a.822.822 0 00-.9-.848l-.265.053h-.106a57.864 57.864 0 01-7.314 1.537.622.622 0 01-.742-.53c-.053-.371-.159-.742-.212-1.113l-.424-2.226a8.229 8.229 0 00-.212-1.113.931.931 0 00-.954-.8c-1.007 0-2.915.371-3.922.477-.477.053-.848.265-.9.742v.212l.212.689v.106c.159.424.318.954.477 1.484.212.636.424 1.272.583 1.8a.605.605 0 01-.583.848c-.848 0-1.749.053-2.65.053-4.187 0-8.268-.371-12.455-.742h-.053a.851.851 0 00-.954.9c0 1.06.159 2.173.212 3.286a1.021 1.021 0 00.795.9h.106c1.007.159 2.279.159 3.392.265 2.65.159 5.3.212 7.95.212 1.8 0 3.551-.053 5.3-.106a.629.629 0 01.689.477c.477 1.484 1.007 2.915 1.537 4.346.212.53-.053.9-.583.9-2.385.159-4.77.265-7.155.265-4.081 0-8.215-.265-12.243-.583a.893.893 0 00-1.007.9c0 1.113.159 2.332.212 3.445a.969.969 0 00.9.9c1.113.159 2.438.159 3.657.212q3.9.159 7.791.159c3.5 0 6.89-.106 10.335-.371a.641.641 0 01.688.385zm-19.451 5.088a1.1 1.1 0 00-.848.424c-.053.053-.053.053-.053.106a15.673 15.673 0 00-1.855 7.208c0 9.169 9.434 10.6 16.748 10.6a78.573 78.573 0 008.639-.424l1.7-.159a8.718 8.718 0 001.7-.265 1.017 1.017 0 00.795-.9l.159-3.657a.891.891 0 00-.9-1.007h-.265a68.167 68.167 0 01-11.872 1.007c-4.293 0-11.342-.477-11.342-5.936a8.877 8.877 0 011.59-4.823l.106-.159a2.3 2.3 0 00.053-.265l.053-.159v-.106a.963.963 0 00-.742-.8h-.106l-3.392-.689zm56.286 17.808a.927.927 0 00.742.371 6.245 6.245 0 002.014-1.325l1.908-1.7a.933.933 0 00.318-.689c0-1.219-9.116-9.805-10.759-11.236a.4.4 0 01-.212-.106l-.424-.106a.319.319 0 00-.212-.053 6.789 6.789 0 00-1.855 1.272l-1.749 1.7h-.106a1.051 1.051 0 00-.318.689 1.081 1.081 0 00.424.8c1.749 1.7 3.657 3.286 5.353 5.035a218.13 218.13 0 013.339 3.551zM69.324 103.723c.318.265.636.583 1.007.9l1.908 1.749c.371.318.689.583 1.007.9a1.111 1.111 0 00.742.371 1.136 1.136 0 00.795-.477l.954-1.537a5.205 5.205 0 00.848-1.59.827.827 0 00-.371-.689c-.848-.742-1.8-1.378-2.756-2.067-1.59-1.166-3.233-2.332-4.929-3.392a.665.665 0 01-.318-.583v-1.217a.64.64 0 01.689-.689h6.307a.918.918 0 00.954-.954v-2.7a.918.918 0 00-.954-.954h-6.309a.64.64 0 01-.689-.689v-5.992a.907.907 0 00-.954-.9h-3.18a.907.907 0 00-.954.9v5.989a.64.64 0 01-.689.689h-7.577a.918.918 0 00-.954.954v2.7a.918.918 0 00.954.954h6.307c.636 0 .9.371.583.954a33.912 33.912 0 01-8.215 10.971.974.974 0 00-.424.742 1.012 1.012 0 00.371.742 37.132 37.132 0 011.961 2.12.892.892 0 00.742.424c1.166 0 4.982-5.353 5.618-6.413.371-.583.689-.9.9-.9.265 0 .424.477.424 1.325v8.321a.918.918 0 00.954.954h3.18a.918.918 0 00.954-.954v-9.432c0-.583.159-.848.477-.848a1.167 1.167 0 01.637.318zm8.745 9.381a.918.918 0 00.954.954h19.5a.918.918 0 00.954-.954V86.763a.918.918 0 00-.954-.954h-19.5a.918.918 0 00-.954.954zm4.929-19.928v-2.332a.64.64 0 01.689-.689h9.964a.64.64 0 01.689.689v2.332a.64.64 0 01-.689.689h-9.964a.64.64 0 01-.689-.689zm0 7.9v-2.388a.64.64 0 01.689-.689h9.964a.64.64 0 01.689.689v2.385a.64.64 0 01-.689.689h-9.964a.64.64 0 01-.689-.689zm0 7.95v-2.441a.64.64 0 01.689-.689h9.964a.64.64 0 01.689.689v2.438a.64.64 0 01-.689.689h-9.964a.64.64 0 01-.689-.689zm-3.5 13.83a1.19 1.19 0 00.742.318c.371 0 1.007-.53 1.59-1.007s1.166-1.06 1.431-1.272a.841.841 0 00.053-1.272 57.575 57.575 0 00-6.254-6.2c0-.053-.106-.053-.159-.106l-.318-.159a.672.672 0 00-.318-.053 6.58 6.58 0 00-1.272.848c-.53.424-1.06.9-1.325 1.113a.876.876 0 00-.424.689.924.924 0 00.318.636l3.021 3.18c.32.317 2.915 3.179 2.915 3.285zm17.437 4.664a1.076 1.076 0 00.9.583 8.394 8.394 0 001.8-.795c.795-.371 1.59-.795 1.855-.9a.928.928 0 00.53-.795c0-.9-5.141-8.692-5.936-9.858a.888.888 0 00-.795-.371 10.645 10.645 0 00-1.643.583c-.742.318-1.431.689-1.7.795a.92.92 0 00-.583.8 1.255 1.255 0 00.159.53c.265.477.53.9.8 1.378l1.643 2.7c.265.477.53.9.8 1.378.741 1.269 1.433 2.647 2.172 3.972zm-43.246-1.219a1.266 1.266 0 00-.106.477.933.933 0 00.583.848l1.749.9a7.281 7.281 0 001.7.742 1.012 1.012 0 00.742-.371c.053-.053.053-.106.106-.106a53.456 53.456 0 004.081-10.07v-.106l.053-.212v-.105a.978.978 0 00-.636-.795l-1.7-.689a7.628 7.628 0 00-1.59-.53.915.915 0 00-.848.689 40.5 40.5 0 01-4.025 9.165c-.056 0-.056.11-.109.163zm37.209-4.346l-1.7-.583c-.689-.212-1.431-.477-1.537-.477-.689 0-.848.636-.9 1.06-.106.583-.106 1.166-.159 1.749-.212 1.8-.742 2.65-2.756 2.65H72.928a3.434 3.434 0 01-1.06-.106 1.253 1.253 0 01-1.007-1.431v-7.049a.918.918 0 00-.954-.954h-3.392a.918.918 0 00-.954.954v7.155c0 5.777 3.18 6.254 8.268 6.254h10.388c6.1 0 6.89-2.968 7.367-8.162a1.037 1.037 0 00-.686-1.06zm42.718-5.247l.053-.212v-.106a6.342 6.342 0 00-1.378-1.961c-.742-.848-1.484-1.643-1.749-1.961a1.143 1.143 0 00-.848-.477 1 1 0 00-.583.265v.106l-.265.424v.106a48.283 48.283 0 01-1.961 5.247c-.954 2.014-2.173 3.657-3.6 3.657-6.519 0-6.731-18.285-6.731-23.32a51.905 51.905 0 01.371-7.049.933.933 0 00-.954-1.007l-4.452-.106c-.689 0-1.007.53-1.007 1.166a31.781 31.781 0 01.265 3.922c0 9.116-.053 33.178 12.4 33.178 5.724 0 8.8-7.526 10.441-11.766zm19.928 1.219c-.848-7.9-4.24-19.292-9.169-25.758a.694.694 0 00-.636-.318 12.429 12.429 0 00-1.908.53l-2.014.689a.964.964 0 00-.742.848 1.183 1.183 0 00.318.689c4.187 5.83 6.254 12.985 7.579 19.981.318 1.643.477 3.339.742 5.035.053.424.212.9.848.9a17.155 17.155 0 002.17-.685c.954-.371 1.908-.795 2.226-.9a1.042 1.042 0 00.583-1.011zm36.254-7.208a147.081 147.081 0 0110.388-4.24l2.332-.848c.371-.159.742-.265 1.113-.424s.689-.318.689-.848a9.751 9.751 0 00-.742-1.855c-.318-.795-.742-1.643-.848-1.908a.933.933 0 00-.848-.583c-.265 0-9.381 4.134-12.3 5.512a.7.7 0 01-1.007-.371 7.474 7.474 0 00-6.89-3.763 16.99 16.99 0 00-3.763.477c-1.484.371-1.8 0-1.007-1.325q1.113-1.829 2.067-3.816a.652.652 0 01.583-.371c3.6-.106 7.314-.318 10.971-.689 1.378-.106 3.975-.318 5.247-.583a.925.925 0 00.795-.954v-3.233a.948.948 0 00-1.06-.954 128.576 128.576 0 01-13.462 1.325c-.583.053-.848-.318-.689-.848a26.369 26.369 0 00.9-4.028c0-.583-.424-.8-.9-.848l-3.763-.318c-.689-.053-.9.371-1.007.848 0 .159-.053.318-.053.424l-.159.954a29.008 29.008 0 01-.742 3.6.755.755 0 01-.689.477 88.573 88.573 0 01-10.653-.477.967.967 0 00-1.06.9v3.339a.972.972 0 00.8.954h.106l1.219.106h1.325a95.68 95.68 0 005.512.159h.636c.371 0 .53.212.371.583-2.7 5.247-6.625 9.7-10.812 13.886a.985.985 0 00-.371.689 1.073 1.073 0 00.424.742c.53.424 3.286 2.6 3.71 2.6a.927.927 0 00.742-.371c.371-.424.689-.9 1.007-1.325 3.074-3.869 6.678-7.473 12.031-7.473a4.383 4.383 0 013.816 1.8.668.668 0 01-.318.9c-5.247 2.756-11.819 6.837-11.819 13.462 0 7.632 8.321 8.533 14.151 8.533 3.286 0 6.572-.212 9.858-.477.53 0 1.378-.053 2.12-.106.795-.106 1.59-.159 2.067-.265a.89.89 0 00.795-.954c.053-1.272.106-2.544.106-3.763a.928.928 0 00-.9-.9h-.106a85.37 85.37 0 01-13.78 1.219c-3.286 0-8.586 0-8.586-4.134 0-3.18 3.233-5.512 5.989-7.155.636-.371 1.06-.106 1.007.636-.053 1.749-.106 3.445-.106 5.194a.876.876 0 00.954.9h3.392a.918.918 0 00.954-.954l-.159-8.374a.764.764 0 01.422-.684zm39.215 16.219a.887.887 0 00.9.53 48.875 48.875 0 007.791-.954c10.441-1.961 21.2-7.314 21.2-19.133 0-9.381-7.367-14.628-16.43-14.628a43.7 43.7 0 00-11.448 1.749c-3.763 1.007-7.473 2.332-11.183 3.392-1.643.53-3.392.9-5.141 1.378-.371.106-.795.318-.795.8 0 .371 1.537 4.028 1.8 4.664v.102a1.272 1.272 0 00.8.583.319.319 0 00.212-.053l.212-.053h.106c7-2.968 17.7-7.261 25.228-7.261 5.883 0 10.441 3.233 10.441 9.275 0 10.494-13.409 13.674-21.942 14.2-.9.053-1.749.053-2.6.159-.424.053-.954.212-.954.848a15.158 15.158 0 00.795 2.12c.424.9.848 1.8 1.007 2.173zm40.174-27.878c.424.053 1.59.106 2.7.106h2.915c.848 0 1.7 0 2.6-.053.636-.053.9.371.636.954a87.061 87.061 0 01-9.858 17.066c-.053 0-.053.106-.106.159l-.159.477a.319.319 0 00-.053.212 1.17 1.17 0 00.583.742l2.014 1.007a7.686 7.686 0 001.961.9.827.827 0 00.689-.371c.9-1.166 1.7-2.491 2.491-3.763a87.23 87.23 0 008.48-17.649.821.821 0 01.583-.424c2.385-.371 4.664-.795 6.943-1.378h.106l.636-.106c.265-.053.424-.159.636-.212h.106a1.047 1.047 0 00.636-.954l-.106-3.18a.851.851 0 00-.954-.9l-.265.053h-.103c-1.749.424-3.551.9-5.3 1.219-.689.106-.954-.265-.795-.9a37.279 37.279 0 001.325-5.777.89.89 0 00-.795-.954c-1.325-.106-2.862-.371-4.187-.371-.689 0-.848.371-.954.848-.159.848-.159 1.855-.265 2.7a46.694 46.694 0 01-1.06 4.876.674.674 0 01-.583.53 74.904 74.904 0 01-4.876.159c-1.908 0-3.869-.053-5.777-.212a.92.92 0 00-1.007 1.007l.265 3.286a1.021 1.021 0 00.795.9zm30.581-6.1l-1.113 1.643a4.926 4.926 0 00-.848 1.7.861.861 0 00.583.8 90.393 90.393 0 0110.708 6.355c.053.053.106.053.106.106l.477.159a.4.4 0 00.265.053c.318-.053.424-.265.583-.477a23.558 23.558 0 002.332-3.5.974.974 0 00-.424-.742c-1.166-.954-10.865-6.519-11.819-6.519a.963.963 0 00-.85.426zm-5.406 21.306a25.9 25.9 0 00-3.5-.265c-5.247 0-11.183 2.544-11.183 8.586 0 6.148 5.989 8.268 11.236 8.268 5.512 0 9.858-2.438 9.858-8.268v-.636c0-.318.212-.477.53-.265 1.06.636 2.014 1.325 2.968 2.014 1.113.848 2.173 1.749 3.392 2.756.053 0 .053 0 .106.053a.893.893 0 00.636.265.974.974 0 00.742-.424l.106-.106a16.456 16.456 0 011.06-1.8 5.943 5.943 0 00.9-1.749.916.916 0 00-.265-.689h-.106a31.413 31.413 0 00-9.858-6.1.62.62 0 01-.424-.583c-.212-3.657-.424-7.367-.424-10.971a13.777 13.777 0 000-1.484c-.053-.53-.265-1.113-.954-1.113h-3.5a.918.918 0 00-.954.954l.424 10.812c.058.537-.26.802-.79.749zm1.007 5.406a8.2 8.2 0 01.053 1.166c0 3.286-1.8 4.876-5.194 4.876-2.544 0-5.3-.848-5.3-3.6 0-2.65 3.339-3.6 5.671-3.6a16.312 16.312 0 014.24.53.63.63 0 01.53.632zm64.342-34.4a76.295 76.295 0 013.392 5.671.938.938 0 00.742.583h.212l.265-.106c.053 0 .053 0 .106-.053l1.749-.795a.98.98 0 00.583-.9c0-.689-3.339-5.565-3.922-6.307a.855.855 0 00-.742-.371 3.532 3.532 0 00-1.007.318h-.106c-.371.212-.689.371-.9.477 0 0-.106 0-.106.053-.318.159-.583.371-.583.742a.964.964 0 00.212.583zm-5.406.742c-.318.159-.583.371-.583.742a1.137 1.137 0 00.212.636 52.82 52.82 0 013.286 5.83.861.861 0 00.795.583 3.963 3.963 0 001.166-.424c.477-.212.954-.477 1.113-.53a.86.86 0 00.583-.848c0-.636-3.127-5.671-3.71-6.466a.927.927 0 00-.742-.371 3.3 3.3 0 00-.954.318h-.106a7.929 7.929 0 01-.954.477s-.106.007-.106.06zm-8.427 21.472c.8 1.537 1.59 3.074 2.438 4.611.424.742.159 1.166-.689 1.06a75.86 75.86 0 00-4.876-.477.944.944 0 00-1.007.848c-.053.848-.212 1.7-.212 2.491a.925.925 0 00.8.954c1.431.265 2.915.318 4.346.477 2.12.265 4.293.636 6.413 1.007a1.334 1.334 0 001.06-.477 16.228 16.228 0 011.06-1.59v-.052a4.4 4.4 0 00.9-1.7 1.116 1.116 0 00-.265-.689c-.53-.689-1.113-1.272-1.643-2.014a40.983 40.983 0 01-2.7-4.664c-.318-.477-.106-.9.477-1.007a42.579 42.579 0 005.3-1.007 12.97 12.97 0 001.954-.419.909.909 0 00.689-.9 12.879 12.879 0 00-.212-1.749 15 15 0 01-.371-1.749.91.91 0 00-.848-.742h-.106l-.212.053h-.106a76.491 76.491 0 01-8.692 1.8.675.675 0 01-.742-.371q-.875-2.146-1.59-4.452a.641.641 0 01.583-.848 54.031 54.031 0 006.837-1.325.868.868 0 00.689-.9 11.188 11.188 0 00-.159-1.7c-.106-.53-.265-1.166-.318-1.59a.822.822 0 00-.9-.848l-.265.053h-.106a57.864 57.864 0 01-7.314 1.537.622.622 0 01-.742-.53c-.053-.371-.159-.742-.212-1.113l-.424-2.226a8.231 8.231 0 00-.212-1.113.931.931 0 00-.954-.8c-1.007 0-2.915.371-3.922.477-.477.053-.848.265-.9.742v.212l.212.689v.106c.159.424.318.954.477 1.484.212.636.424 1.272.583 1.8a.605.605 0 01-.583.848c-.848 0-1.749.053-2.65.053-4.187 0-8.268-.371-12.455-.742h-.053a.851.851 0 00-.954.9c0 1.06.159 2.173.212 3.286a1.021 1.021 0 00.8.9h.106c1.007.159 2.279.159 3.392.265 2.65.159 5.3.212 7.95.212 1.8 0 3.551-.053 5.3-.106a.629.629 0 01.689.477c.477 1.484 1.007 2.915 1.537 4.346.212.53-.053.9-.583.9-2.385.159-4.77.265-7.155.265-4.081 0-8.215-.265-12.243-.583a.893.893 0 00-1.007.9c0 1.113.159 2.332.212 3.445a.969.969 0 00.9.9c1.113.159 2.438.159 3.657.212q3.9.159 7.791.159c3.5 0 6.89-.106 10.335-.371a.641.641 0 01.683.385zm-19.451 5.088a1.1 1.1 0 00-.848.424c-.053.053-.053.053-.053.106a15.673 15.673 0 00-1.855 7.208c0 9.169 9.434 10.6 16.748 10.6a78.573 78.573 0 008.639-.424l1.7-.159a8.718 8.718 0 001.7-.265 1.017 1.017 0 00.795-.9l.159-3.657a.891.891 0 00-.9-1.007h-.265a68.167 68.167 0 01-11.872 1.007c-4.293 0-11.342-.477-11.342-5.936a8.877 8.877 0 011.59-4.823l.106-.159a2.3 2.3 0 00.053-.265l.053-.159v-.107a.963.963 0 00-.742-.795h-.106l-3.392-.689zm56.286 17.808a.927.927 0 00.742.371 6.245 6.245 0 002.014-1.325l1.908-1.7a.933.933 0 00.318-.689c0-1.219-9.116-9.805-10.759-11.236a.4.4 0 01-.212-.106l-.424-.106a.319.319 0 00-.212-.053 6.789 6.789 0 00-1.855 1.272l-1.749 1.7h-.106a1.051 1.051 0 00-.318.689 1.081 1.081 0 00.424.795c1.749 1.7 3.657 3.286 5.353 5.035a218.13 218.13 0 013.339 3.551zm-258.428 63.337a52.911 52.911 0 01-13.356 11.66c-1.325.795-2.7 1.431-4.028 2.12a1.044 1.044 0 00-.689.9 1.074 1.074 0 00.318.742c.053.053.053.053.053.106.371.424.848.848 1.272 1.325.371.477.689.954 1.113 1.431a1.036 1.036 0 00.689.424h.212l.212-.106c.053 0 .159 0 .159-.053a60.61 60.61 0 0016.377-13.462 1.42 1.42 0 01.848-.583c.265 0 .424.318.424 1.007v15.1a.862.862 0 00.9.9h3.71a.907.907 0 00.954-.9v-15.311c0-.689.159-1.007.424-1.007a1.42 1.42 0 01.848.583 58.562 58.562 0 0016.483 13.674c0 .053.106.053.159.053l.212.106h.212a1.178 1.178 0 00.689-.424c.318-.371.583-.795.9-1.219.424-.53.954-1.06 1.378-1.537 0-.053 0-.053.053-.106a1.13 1.13 0 00.371-.795 1.039 1.039 0 00-.689-.848c-1.325-.689-2.7-1.325-4.028-2.12a52.248 52.248 0 01-13.409-11.66c-.53-.636-.318-1.06.53-1.06h15.9a.918.918 0 00.954-.954v-3.339a.918.918 0 00-.954-.954h-19.343a.64.64 0 01-.689-.689v-6.36a.64.64 0 01.689-.689h15.582a.918.918 0 00.954-.954v-3.392a.907.907 0 00-.954-.9h-15.582a.64.64 0 01-.689-.689v-6.731a.907.907 0 00-.954-.9h-3.71a.862.862 0 00-.9.9v6.73a.64.64 0 01-.689.689h-15.159a.907.907 0 00-.954.9v3.392a.918.918 0 00.954.954h15.156a.64.64 0 01.689.689v6.36a.64.64 0 01-.689.689h-19.025a.918.918 0 00-.954.954v3.339a.918.918 0 00.954.954h15.582c.843.001 1.06.425.53 1.061zm52.413 1.749a55.467 55.467 0 01-12.932 10.706c-1.272.689-2.544 1.325-3.816 1.961a1.044 1.044 0 00-.689.9 1.127 1.127 0 00.371.795c.371.424.795.848 1.219 1.325.371.424.689.9 1.06 1.378a1.036 1.036 0 00.689.424h.212l.212-.106c.053 0 .159 0 .159-.053a57.677 57.677 0 0016.487-13.46 1.42 1.42 0 01.848-.583c.265 0 .424.318.424 1.007v14.522a.862.862 0 00.9.9h3.71a.907.907 0 00.954-.9v-14.576c0-.689.159-1.06.424-1.06a1.42 1.42 0 01.848.583 56.393 56.393 0 0016.536 13.727c0 .053.106.053.106.053l.265.106h.212a1.085 1.085 0 00.742-.477c.212-.212.371-.477.583-.689l1.113-1.484a6.714 6.714 0 00.583-.689l.053-.106a1.158 1.158 0 00.159-.265l.053-.265v-.104a1 1 0 00-.636-.795c-1.484-.795-3.021-1.484-4.452-2.332a52.959 52.959 0 01-12.349-10.441c-.53-.689-.318-1.113.53-1.113h15.264a.918.918 0 00.954-.954v-3.18a.918.918 0 00-.954-.954h-10.175c-.159 0-.212-.053-.053-.159l.106-.106c0-.053.053-.106.106-.159.848-1.272 5.3-8.586 5.3-9.328 0-.477-.424-.689-.742-.795l-1.961-.636a10.983 10.983 0 00-1.908-.53.907.907 0 00-.848.636 87.344 87.344 0 01-4.187 8.692c-.053.053-.053.053-.053.106a1.684 1.684 0 00-.159.477.916.916 0 00.689.848c.212.053.9.318 1.59.53.053 0 .106.053.159.053l.318.106c.053 0 .106.053.159.053.318.159.318.212-.053.212h-7.63a.64.64 0 01-.689-.689v-10.655a.64.64 0 01.689-.687h17.225a.918.918 0 00.954-.954v-3.18a.918.918 0 00-.954-.954h-17.225a.64.64 0 01-.689-.689v-4.452a.907.907 0 00-.954-.9h-3.71a.862.862 0 00-.9.9v4.452a.64.64 0 01-.689.689h-16.751a.918.918 0 00-.954.954v3.18a.918.918 0 00.954.954h16.748a.64.64 0 01.689.689v10.651a.64.64 0 01-.689.689h-19.292a.918.918 0 00-.954.954v3.18a.918.918 0 00.954.954h15.211c.901 0 1.113.477.526 1.113zm-9.7-15.105a48.292 48.292 0 013.71 8.056.971.971 0 00.954.742 8.244 8.244 0 001.8-.636c.742-.318 1.537-.636 1.8-.742a.983.983 0 00.636-.848c0-1.378-3.445-7.473-4.346-8.745a.872.872 0 00-.8-.424 8.907 8.907 0 00-1.643.53l-1.59.636h-.106c-.265.159-.636.318-.636.8a1.556 1.556 0 00.159.53c.014.048.014.048.062.101zm75.79 13.356a147.081 147.081 0 0110.388-4.24l2.332-.848c.371-.159.742-.265 1.113-.424s.689-.318.689-.848a9.751 9.751 0 00-.742-1.855c-.318-.795-.742-1.643-.848-1.908a.933.933 0 00-.848-.583c-.265 0-9.381 4.134-12.3 5.512a.7.7 0 01-1.007-.371 7.474 7.474 0 00-6.89-3.763 16.991 16.991 0 00-3.763.477c-1.484.371-1.8 0-1.007-1.325q1.113-1.829 2.067-3.816a.652.652 0 01.583-.371c3.6-.106 7.314-.318 10.971-.689 1.378-.106 3.975-.318 5.247-.583a.925.925 0 00.795-.954v-3.233a.948.948 0 00-1.06-.954 128.57 128.57 0 01-13.462 1.325c-.583.053-.848-.318-.689-.848a26.37 26.37 0 00.9-4.028c0-.583-.424-.795-.9-.848l-3.763-.318c-.689-.053-.9.371-1.007.848 0 .159-.053.318-.053.424l-.159.954a29.008 29.008 0 01-.742 3.6.755.755 0 01-.689.477 88.574 88.574 0 01-10.653-.477.967.967 0 00-1.06.9v3.339a.972.972 0 00.8.954h.106l1.219.106h1.325a95.68 95.68 0 005.512.159h.636c.371 0 .53.212.371.583-2.7 5.247-6.625 9.7-10.812 13.886a.985.985 0 00-.371.689 1.073 1.073 0 00.424.742c.53.424 3.286 2.6 3.71 2.6a.927.927 0 00.742-.371c.371-.424.689-.9 1.007-1.325 3.074-3.869 6.678-7.473 12.031-7.473a4.383 4.383 0 013.816 1.8.668.668 0 01-.318.9c-5.247 2.756-11.819 6.837-11.819 13.462 0 7.632 8.321 8.533 14.151 8.533 3.286 0 6.572-.212 9.858-.477.53 0 1.378-.053 2.12-.106.795-.106 1.59-.159 2.067-.265a.89.89 0 00.795-.954c.053-1.272.106-2.544.106-3.763a.928.928 0 00-.9-.9h-.106a85.37 85.37 0 01-13.78 1.219c-3.286 0-8.586 0-8.586-4.134 0-3.18 3.233-5.512 5.989-7.155.636-.371 1.06-.106 1.007.636-.053 1.749-.106 3.445-.106 5.194a.876.876 0 00.954.9h3.392a.918.918 0 00.954-.954l-.159-8.374a.764.764 0 01.432-.684zm39.22 16.218a.887.887 0 00.9.53 48.875 48.875 0 007.791-.954c10.441-1.961 21.2-7.314 21.2-19.133 0-9.381-7.367-14.628-16.43-14.628a43.7 43.7 0 00-11.448 1.749c-3.763 1.007-7.473 2.332-11.183 3.392-1.643.53-3.392.9-5.141 1.378-.371.106-.8.318-.8.795 0 .371 1.537 4.028 1.8 4.664v.108a1.272 1.272 0 00.8.583.319.319 0 00.212-.053l.212-.053h.106c7-2.968 17.7-7.261 25.228-7.261 5.883 0 10.441 3.233 10.441 9.275 0 10.494-13.409 13.674-21.942 14.2-.9.053-1.749.053-2.6.159-.424.053-.954.212-.954.848a15.159 15.159 0 00.8 2.12c.424.9.848 1.8 1.007 2.173zm40.174-27.878c.424.053 1.59.106 2.7.106h2.915c.848 0 1.7 0 2.6-.053.636-.053.9.371.636.954a87.061 87.061 0 01-9.858 17.066c-.053 0-.053.106-.106.159l-.159.477a.319.319 0 00-.053.212 1.17 1.17 0 00.583.742l2.014 1.007a7.686 7.686 0 001.961.9.827.827 0 00.689-.371c.9-1.166 1.7-2.491 2.491-3.763a87.231 87.231 0 008.48-17.649.821.821 0 01.583-.424c2.385-.371 4.664-.795 6.943-1.378h.106l.636-.106c.265-.053.424-.159.636-.212h.106a1.047 1.047 0 00.636-.954l-.106-3.18a.851.851 0 00-.954-.9l-.265.053h-.098c-1.749.424-3.551.9-5.3 1.219-.689.106-.954-.265-.795-.9a37.279 37.279 0 001.325-5.777.89.89 0 00-.795-.954c-1.325-.106-2.862-.371-4.187-.371-.689 0-.848.371-.954.848-.159.848-.159 1.855-.265 2.7a46.694 46.694 0 01-1.06 4.876.674.674 0 01-.583.53 74.904 74.904 0 01-4.876.159c-1.908 0-3.869-.053-5.777-.212a.92.92 0 00-1.007 1.007l.265 3.286a1.021 1.021 0 00.795.9zm30.581-6.1l-1.113 1.643a4.926 4.926 0 00-.848 1.7.861.861 0 00.583.795 90.4 90.4 0 0110.706 6.36c.053.053.106.053.106.106l.477.159a.4.4 0 00.265.053c.318-.053.424-.265.583-.477a23.558 23.558 0 002.332-3.5.974.974 0 00-.424-.742c-1.166-.954-10.865-6.519-11.819-6.519a.963.963 0 00-.843.427zm-5.406 21.306a25.9 25.9 0 00-3.5-.265c-5.247 0-11.183 2.544-11.183 8.586 0 6.148 5.989 8.268 11.236 8.268 5.512 0 9.858-2.438 9.858-8.268v-.636c0-.318.212-.477.53-.265 1.06.636 2.014 1.325 2.968 2.014 1.113.848 2.173 1.749 3.392 2.756.053 0 .053 0 .106.053a.893.893 0 00.636.265.974.974 0 00.742-.424l.106-.106a16.457 16.457 0 011.06-1.8 5.943 5.943 0 00.9-1.749.916.916 0 00-.265-.689h-.106a31.413 31.413 0 00-9.858-6.1.62.62 0 01-.424-.583c-.212-3.657-.424-7.367-.424-10.971a13.777 13.777 0 000-1.484c-.053-.53-.265-1.113-.954-1.113h-3.5a.918.918 0 00-.954.954l.424 10.812c.063.538-.255.803-.785.75zm1.007 5.406a8.2 8.2 0 01.053 1.166c0 3.286-1.8 4.876-5.194 4.876-2.544 0-5.3-.848-5.3-3.6 0-2.65 3.339-3.6 5.671-3.6a16.312 16.312 0 014.24.53.63.63 0 01.535.633zm39.008-10.07l-.795-.8a2.659 2.659 0 01-.848-1.537 2.543 2.543 0 01.795-1.537l1.378-1.272c4.77-4.081 9.752-7.844 14.575-11.872 1.113-.848 2.279-1.7 3.339-2.65a.892.892 0 00.424-.742.906.906 0 00-.371-.689c-.318-.265-1.166-1.113-2.014-1.908a6.838 6.838 0 00-2.173-1.537.892.892 0 00-.742.424 87.25 87.25 0 01-8.742 8.437c-3.127 2.65-6.36 5.194-9.487 7.791-1.59 1.325-4.081 3.445-4.081 5.83 0 2.173 2.173 4.081 3.657 5.353 5.512 4.664 11.183 9.328 16.271 14.416 1.166 1.166 2.279 2.491 3.5 3.657l.106.053a.052.052 0 00.053.053l.424.212a.338.338 0 00.318 0 7.708 7.708 0 002.014-1.537c.9-.795 1.749-1.7 2.067-1.961a.933.933 0 00.318-.689.944.944 0 00-.318-.689c-1.537-1.59-3.233-3.021-4.876-4.452-4.611-4.081-9.434-7.791-14.1-11.766zm19.4-12.084c1.325 2.014 2.332 4.134 3.5 6.148a.957.957 0 00.742.53h.212l.265-.106h.106l2.014-.848a1 1 0 00.583-.848c0-.583-3.445-6.148-3.975-6.89a.855.855 0 00-.742-.371 5.35 5.35 0 00-1.113.371h-.106a9.806 9.806 0 01-1.06.53s-.106 0-.106.053a.884.884 0 00-.583.636.319.319 0 00.053.212l.106.318c.001.058.054.27.107.27zm-2.809 8.745a1 1 0 00.848.477 3.719 3.719 0 001.219-.424h.106a11.688 11.688 0 011.166-.583.861.861 0 00.583-.795c0-.583-3.392-6.254-3.922-7a.927.927 0 00-.742-.371 3.972 3.972 0 00-1.166.371l-1.166.477a.983.983 0 00-.636.848 1.555 1.555 0 00.159.53c1.272 2.067 2.385 4.24 3.551 6.36zm20.193 16.748a8.427 8.427 0 108.427-8.427 8.472 8.472 0 00-8.424 8.432zm8.427 4.876a4.9 4.9 0 114.929-4.876 4.932 4.932 0 01-4.926 4.881z" fill="#fff"/></svg>