<svg xmlns="http://www.w3.org/2000/svg" width="142.853" height="134.513"><path d="M114.586 14.5L76.661 8.265V0H64.515v8.187l-36.618 6.346-7.064 32.261 11.924 2.057 5.5-25.125 31.995-5.543 33.989 5.581 5.5 25.087 11.922-2.057z" fill="#004882"/><path d="M111.679 134.514H29.864l-8.708-19.332 11.279-4.006 5.652 12.553h65.492l10.248-21.846-43.572-8.748-53.844 11.251L0 64.098l69.061-16.886h2.324l71.467 16.922-8.676 18.3-11.193-4.185 3.262-6.882-55.99-13.26L15.891 71.4l8.264 20.287 45.02-9.406h2.092l59.33 11.91z" fill="#1c1b6a"/></svg>