<svg xmlns="http://www.w3.org/2000/svg" width="253.056" height="31.94"><defs><clipPath id="a"><path fill="#fff" d="M0 0h253.056v31.94H0z"/></clipPath></defs><g clip-path="url(#a)" fill="#fff"><path d="M46.65 13.208a.422.422 0 00.438.41h19.114a.434.434 0 00.472-.379.1.1 0 000-.031V11.7a.422.422 0 00-.436-.41H47.126a.434.434 0 00-.472.379v.031zm1.738 7.348a.426.426 0 00.438.412h15.3a.435.435 0 00.474-.381v-1.514a.425.425 0 00-.438-.412h-15.3a.436.436 0 00-.474.381v1.514zm-3.23 7.805a.424.424 0 00.436.412h22.027a.434.434 0 00.472-.381v-1.537a.408.408 0 00-.428-.389.4.4 0 00-.044 0H45.629a.425.425 0 00-.472.35.313.313 0 000 .039zM77.81 20.1c-.42 3.675-1.339 6.1-5.437 7.618-.4.159-.789.275-1.183.412-.158.068-.394.159-.394.365a.561.561 0 00.184.365 14.208 14.208 0 01.867 1.142c.026 0 .026.023.052.046a.489.489 0 00.42.159l.132-.023h.059c6.069-1.959 7.542-5.086 8.119-10.129a.326.326 0 01.342-.273h3.539a.307.307 0 01.342.252.2.2 0 010 .044v7.166c0 2.236.63 2.99 3.362 2.99h3.52c2.313 0 2.838-1.1 3.154-2.83a10.228 10.228 0 00.21-1.806.4.4 0 00-.316-.41h-.052c-.132-.046-.474-.182-.815-.3h-.052a4.334 4.334 0 00-.788-.273.349.349 0 00-.316.159c-.026 0-.026.05-.026.073l-.078.251v.046c-.028.3-.054.913-.111 1.461a2.222 2.222 0 01-.434 1.323.841.841 0 01-.578.159h-2.998c-.893 0-1.025-.114-1.025-.867v-7.143a.291.291 0 01.291-.3.261.261 0 01.05 0h6.437a.424.424 0 00.472-.35v-1.409a.422.422 0 00-.438-.41h-9.833a.306.306 0 01-.342-.254.185.185 0 010-.042V9.508a.424.424 0 00-.452-.389h-1.755a.409.409 0 00-.448.353v7.836a.289.289 0 01-.291.3.245.245 0 01-.049 0h-9.59a.434.434 0 00-.472.379.1.1 0 000 .031v1.37a.408.408 0 00.426.389h5.957a.315.315 0 01.345.272.191.191 0 010 .052m12.872-10.043l-.111-.023a.453.453 0 00-.468.273c-.42.845-.767 1.712-1.235 2.532-.472.845-1 1.689-1.549 2.534a.114.114 0 00-.026.094l-.054.161v.046a.411.411 0 00.316.342l.788.273a7.107 7.107 0 00.789.205.5.5 0 00.394-.159 46.979 46.979 0 003.336-5.362.459.459 0 00-.342-.389l-1.787-.524zm-12.166 5.385a21.479 21.479 0 00-2.862-5.035.409.409 0 00-.368-.182 3.851 3.851 0 00-.815.251l-.814.275a.407.407 0 00-.316.342v.046l.052.137a.13.13 0 00.026.1 31.382 31.382 0 012.518 4.884.491.491 0 00.474.3 7.3 7.3 0 00.92-.251c.368-.138.788-.275.92-.321a.451.451 0 00.29-.342v-.059l-.028-.1zm19.206-4.176a23.513 23.513 0 013.416 3.217.51.51 0 00.394.182 2.648 2.648 0 00.871-.458l.84-.571a.344.344 0 00.184-.3c0-.475-3.624-3.584-4.15-3.584a2.4 2.4 0 00-.789.389l-.765.5a.379.379 0 00-.212.3.421.421 0 00.184.321zm20.472.615v.754a.408.408 0 00.428.389h1.587a.423.423 0 00.47-.35v-2.417a.422.422 0 00-.436-.41h-15.64a.434.434 0 00-.474.379v2.409a.41.41 0 00.428.389h.046c.526 0 .893.023 1.155.023a1.186 1.186 0 00.548-.1c.026-.023.052-.023.052-.046a.477.477 0 00.132-.41v-.041a4.183 4.183 0 000-.571.289.289 0 01.291-.3.245.245 0 01.049 0h11.013a.305.305 0 01.342.252.228.228 0 010 .047zm-7.182 13.855v1.141a.423.423 0 00.438.41h.036c.63 0 1.024.023 1.339.023h.054c.656-.068.736-.159.736-.731 0-.205-.028-.475-.028-.843a.293.293 0 01.291-.3h6.7a.433.433 0 00.474-.379v-.967a.422.422 0 00-.438-.41.132.132 0 00-.036 0h-6.645a.309.309 0 01-.342-.254.2.2 0 010-.044v-.365a.291.291 0 01.291-.3.261.261 0 01.05 0h4.913a.435.435 0 00.472-.381.1.1 0 000-.031v-5.904a.425.425 0 00-.452-.389h-4.932a.309.309 0 01-.342-.254.2.2 0 010-.044v-.407a.291.291 0 01.291-.3.261.261 0 01.05 0h5.517a.436.436 0 00.474-.381v-.9a.423.423 0 00-.438-.41h-5.552a.308.308 0 01-.342-.254.183.183 0 010-.042v-.681a.425.425 0 00-.438-.412h-.036c-.547 0-.972-.023-1.26-.023a1.193 1.193 0 00-.631.1.5.5 0 00-.21.475 3.852 3.852 0 000 .548.291.291 0 01-.291.3.261.261 0 01-.05 0h-5.412a.434.434 0 00-.474.379v.9a.425.425 0 00.438.412h5.447a.306.306 0 01.342.252.2.2 0 010 .044v.41a.293.293 0 01-.291.3h-4.78a.431.431 0 00-.472.369v5.914a.424.424 0 00.436.412h4.765a.306.306 0 01.342.252.2.2 0 010 .044v.365a.293.293 0 01-.291.3h-6.461a.435.435 0 00-.474.379v.967a.423.423 0 00.438.41.132.132 0 00.036 0h6.411a.3.3 0 01.337.257.17.17 0 010 .041m2.575-7.418v-.5a.293.293 0 01.291-.3h2.7a.308.308 0 01.342.254v.545a.291.291 0 01-.291.3.261.261 0 01-.05 0h-2.646a.307.307 0 01-.342-.252.2.2 0 010-.044zm-5.8 0v-.5a.293.293 0 01.291-.3h2.6a.307.307 0 01.342.254.2.2 0 010 .044v.5a.291.291 0 01-.291.3.261.261 0 01-.05 0h-2.553a.307.307 0 01-.342-.252.2.2 0 010-.044m-7.618 7.307a21.488 21.488 0 01-2.291 1.57l-.524.342a1.523 1.523 0 00-.238.161.347.347 0 00-.184.3 2.96 2.96 0 00.394.822c.212.365.422.731.474.845a.486.486 0 00.42.273.628.628 0 00.368-.137c1-.708 1.9-1.51 2.843-2.306a.363.363 0 01.464-.01.218.218 0 01.034.033c2.08 2.01 4.993 2.352 7.909 2.42 1.024.023 2.049 0 3.021 0 1.707 0 3.362-.023 5.045-.046.682-.023 1.759 0 2.391-.068.288-.046.368-.114.446-.321.052-.159.5-1.414.5-1.528 0-.251-.29-.342-.526-.342-2.737.114-5.465.182-8.171.182-.814 0-1.733 0-2.653-.023-2.47 0-5.571-.412-7.016-2.352a.3.3 0 01-.052-.159v-6.874a.422.422 0 00-.438-.41.12.12 0 00-.034 0h-4.756a.433.433 0 00-.474.379v1.351a.424.424 0 00.452.389h2.358a.305.305 0 01.342.252.2.2 0 010 .044v4.975a.329.329 0 01-.1.236m13.425-4.728v-.548a.291.291 0 01.291-.3.261.261 0 01.05 0h2.653a.305.305 0 01.342.252.2.2 0 010 .044v.548a.289.289 0 01-.291.3.261.261 0 01-.05 0h-2.657a.308.308 0 01-.342-.254.183.183 0 010-.042m-5.8 0v-.548a.29.29 0 01.291-.3.261.261 0 01.05 0h2.549a.307.307 0 01.342.252v.592a.291.291 0 01-.291.3.261.261 0 01-.05 0h-2.556a.308.308 0 01-.342-.254.183.183 0 010-.042zm19.572 5.912v3.081a.426.426 0 00.452.389h1.412a.431.431 0 00.474-.369v-3.101a.292.292 0 01.291-.3h3.255a.431.431 0 00.469-.382v-1.234a.424.424 0 00-.436-.412h-3.242a.307.307 0 01-.342-.252.2.2 0 010-.044v-.89a.291.291 0 01.291-.3.261.261 0 01.05 0h2.737a.434.434 0 00.472-.381.1.1 0 000-.031v-6.431c0-.366.158-.412.368-.1a.5.5 0 00.111.138l.156.273c.132.159.264.387.526.387a4.6 4.6 0 001.313-.708l.684-.524c.264-.182.422-.114.422.159v.5a.423.423 0 00.452.387h6.456a.431.431 0 00.474-.371v-.61c0-.228.078-.342.21-.342a.6.6 0 01.316.137 7.793 7.793 0 002.023 1.235.423.423 0 00.394-.251c.236-.387.5-.754.788-1.141a.114.114 0 00.026-.094l.08-.161v-.094a.445.445 0 00-.236-.319 17.977 17.977 0 01-6.043-5.273.609.609 0 00-.422-.205h-1.769a.48.48 0 00-.42.228 16.646 16.646 0 01-5.752 5.506.167.167 0 01-.21-.01.182.182 0 01-.026-.036.235.235 0 00-.158-.068h-2.995a.308.308 0 01-.342-.254.2.2 0 010-.044v-.8a.293.293 0 01.291-.3h3.361a.434.434 0 00.474-.379v-1.18a.423.423 0 00-.438-.41h-3.346a.308.308 0 01-.342-.254.183.183 0 010-.042V9.487a.424.424 0 00-.452-.389h-1.417a.429.429 0 00-.472.369v1.664a.289.289 0 01-.291.3.261.261 0 01-.05 0h-2.995a.435.435 0 00-.474.379v1.2a.423.423 0 00.438.41h3.035a.308.308 0 01.342.254.183.183 0 010 .042v.792a.291.291 0 01-.291.3.261.261 0 01-.05 0h-2.627a.436.436 0 00-.474.381v7.4a.422.422 0 00.438.41.132.132 0 00.036 0h2.65a.307.307 0 01.34.254.2.2 0 010 .044v.89a.289.289 0 01-.291.3.244.244 0 01-.049 0h-3.338a.434.434 0 00-.472.379.1.1 0 000 .031v1.214a.422.422 0 00.436.41.132.132 0 00.036 0h3.338a.307.307 0 01.34.254.2.2 0 010 .044zm10.619-12.507a17.018 17.018 0 002.285-2.534.338.338 0 01.605 0 18 18 0 002.417 2.534c.368.319.262.524-.236.524h-4.843c-.474 0-.578-.205-.238-.524zm-8.6 3.491v-1.025a.293.293 0 01.293-.3.245.245 0 01.049 0h1.179a.308.308 0 01.342.254v1.069a.293.293 0 01-.291.3h-1.234a.308.308 0 01-.342-.254v-.044m-3.572 0v-1.025a.291.291 0 01.291-.3.261.261 0 01.05 0h1.156a.308.308 0 01.342.254.183.183 0 010 .042v1.027a.293.293 0 01-.291.3h-1.206a.306.306 0 01-.342-.254.2.2 0 010-.044m16.919 12.12a.458.458 0 00.474.319 10.257 10.257 0 002.916-.273c.841-.342.893-1.027.893-1.689V18.114a.425.425 0 00-.438-.412h-1.217a.436.436 0 00-.474.381v10.186c0 .182-.109.251-.342.251h-1.629c-.262 0-.524.07-.524.366a2.208 2.208 0 00.156.5zm-6.3-4.017h1.655a.307.307 0 01.342.252.2.2 0 010 .044v2.287a.165.165 0 01-.109.159h-.054l-.109.023h-.622a.167.167 0 00-.109.023.293.293 0 00-.184.3v.042l.236.913a.533.533 0 00.5.342c1.629 0 2.365-.273 2.365-1.78V18.479a.422.422 0 00-.438-.41h-5.26a.415.415 0 00-.448.371v11.382a.394.394 0 00.405.387.17.17 0 00.041 0h.973a.431.431 0 00.472-.369v-3.644a.29.29 0 01.286-.3.315.315 0 01.055 0m5.017.524a.425.425 0 00.454.389h.965a.429.429 0 00.472-.371v-7.411a.425.425 0 00-.438-.412h-.981a.437.437 0 00-.474.381v7.424zm-12.058-5.412v-1.022a.293.293 0 01.293-.3h1.229a.309.309 0 01.342.254v1.068a.291.291 0 01-.291.3.261.261 0 01-.05 0h-1.183a.308.308 0 01-.342-.252v-.048m-3.572 0v-1.022a.292.292 0 01.291-.3h1.205a.309.309 0 01.342.254.2.2 0 010 .044v1.024a.291.291 0 01-.291.3.261.261 0 01-.05 0h-1.155a.306.306 0 01-.342-.252.2.2 0 010-.044m10.272-.159v-.8a.291.291 0 01.291-.3.261.261 0 01.05 0h1.655a.307.307 0 01.342.252.2.2 0 010 .044v.8a.291.291 0 01-.291.3.261.261 0 01-.05 0h-1.653a.308.308 0 01-.342-.254.183.183 0 010-.042m0 3.035v-.867a.291.291 0 01.291-.3.261.261 0 01.05 0h1.655a.307.307 0 01.342.252.2.2 0 010 .044v.867a.291.291 0 01-.291.3.261.261 0 01-.05 0h-1.655a.308.308 0 01-.342-.252.2.2 0 010-.044m20.573-3.675c.21.41.446.822.682 1.209 0 .023 0 .023.028.068l.078.068c0 .023.026.023.026.046s.052.046.08.068l.13.07c.054 0 .111.023.158 0a3.455 3.455 0 001.313-1.325 41.028 41.028 0 00-3.074-4.176.384.384 0 01-.052-.159v-.228a.293.293 0 01.291-.3.261.261 0 01.05 0h2.391a.434.434 0 00.474-.379v-1.353a.422.422 0 00-.438-.41h-2.427a.308.308 0 01-.342-.254.185.185 0 010-.042V9.508a.425.425 0 00-.452-.389h-1.646a.431.431 0 00-.472.369v3.628a.291.291 0 01-.291.3.261.261 0 01-.05 0h-2.789a.435.435 0 00-.474.379v1.356a.423.423 0 00.438.41h2.506a.294.294 0 01.337.225.228.228 0 01-.023.142 19.927 19.927 0 01-3.652 7.485.166.166 0 01-.051.095l-.052.182v.114l.052.068c.026.068.026.114.052.114.29.412.526.822.767 1.237v.046l.158.182.184.094a.192.192 0 00.158.023c.446-.137 1.077-1.323 1.629-2.487.21-.435.394-.89.578-1.3.158-.366.288-.571.368-.571.109 0 .158.228.158.666v8a.426.426 0 00.452.389h1.649a.431.431 0 00.474-.369V20.35c0-.41.078-.592.21-.592.1 0 .233.137.417.456m7.092 1.072a18.078 18.078 0 01-4.487 5.135c-.368.252-.736.5-1.131.754a.444.444 0 00-.236.342.524.524 0 00.184.321c.184.182.394.365.578.524l.054.046a3.861 3.861 0 00.42.477l.052.046a.459.459 0 00.29.137.2.2 0 00.109-.023l.184-.046a.025.025 0 00.026-.023h.052a19.144 19.144 0 004.809-5c.184-.273.342-.433.472-.433s.21.205.21.594v5.755a.426.426 0 00.454.389h1.649a.431.431 0 00.472-.369v-5.704c0-.456.078-.685.21-.685s.288.184.5.548a18.742 18.742 0 003.566 4.633l.052.023a.025.025 0 00.026.023l.21.094a.373.373 0 00.158.023.648.648 0 00.316-.159v-.05l1.155-1.05a.424.424 0 00.184-.319.455.455 0 00-.21-.343c-.342-.3-.71-.57-1.077-.913a18.953 18.953 0 01-3.574-4.747c-.13-.251 0-.41.316-.41h3.548a.434.434 0 00.472-.379v-1.289a.422.422 0 00-.436-.41h-5.081a.308.308 0 01-.342-.254.183.183 0 010-.042v-2.9a.291.291 0 01.291-.3.261.261 0 01.05 0h4.23a.434.434 0 00.474-.379v-1.31a.422.422 0 00-.438-.41h-4.266a.308.308 0 01-.342-.254.2.2 0 010-.044V9.508a.425.425 0 00-.452-.389h-1.649a.431.431 0 00-.474.369v3.42a.292.292 0 01-.291.3.261.261 0 01-.05 0h-1.313a.317.317 0 01-.356-.247.25.25 0 01.015-.119 11.156 11.156 0 00.42-1.963.409.409 0 00-.34-.387h-.054c-.21-.023-.5-.094-.814-.137a6.193 6.193 0 00-.815-.1.419.419 0 00-.42.3v.046l-.078.342-.132.685a14.971 14.971 0 01-2.023 5.249.066.066 0 00-.026.046.352.352 0 00-.08.229.363.363 0 00.264.342c.13.068.446.251.767.41a3.041 3.041 0 00.736.343.516.516 0 00.368-.184l.052-.046a13.9 13.9 0 001.281-2.509.365.365 0 01.316-.205h2.228a.305.305 0 01.342.252.2.2 0 010 .044v2.9a.29.29 0 01-.291.3.261.261 0 01-.05 0h-5.227a.434.434 0 00-.474.381v1.286a.422.422 0 00.438.41.132.132 0 00.036 0h3.678c.345 0 .472.164.314.415m25.906-5.592c.316 3.629 1.525 14.606 7.2 14.606 2.469 0 2.995-1.642 3.336-3.354a8.515 8.515 0 00.236-1.667c0-.251-.078-.3-.288-.41h-.054c-.13-.068-.5-.252-.84-.435a3.95 3.95 0 00-.815-.387.317.317 0 00-.316.205l-.052.137v.046l-.026.114c-.026.229-.052 1.1-.184 1.894-.158.822-.394 1.484-.788 1.484a2.281 2.281 0 01-1.629-1c-1.893-2.42-2.706-8.056-3-11.184a.3.3 0 01.286-.317h6.649a.434.434 0 00.474-.379v-1.47a.422.422 0 00-.438-.41.132.132 0 00-.036 0h-6.8a.328.328 0 01-.342-.275c-.026-.752-.026-1.505-.026-2.282 0-.319.026-.685 0-1a.425.425 0 00-.452-.389h-1.92a.431.431 0 00-.472.369v.018c0 1.072.052 2.187.078 3.24a.266.266 0 01-.229.317.372.372 0 01-.112 0h-12.4a.433.433 0 00-.474.379v1.459a.422.422 0 00.438.41h12.645a.328.328 0 01.345.273m4.23-5.59a.412.412 0 00-.21.319.4.4 0 00.236.319 32.836 32.836 0 012.89 2.261.593.593 0 00.342.159.4.4 0 00.316-.137h.052c.132-.116.42-.275.71-.5l.342-.3a.345.345 0 01.052-.068l.132-.207v-.039l.026-.068a.509.509 0 00-.132-.228 16.766 16.766 0 00-3.468-2.327 1.608 1.608 0 00-.682.342zm-12.608 16.507l-4.489.684a.391.391 0 00-.368.389l.028.114v.046l.472 1.46a.44.44 0 00.448.275h.13c2.575-.477 5.177-.981 7.773-1.484 1.341-.251 2.68-.5 4.02-.8a.41.41 0 00.368-.387 10.155 10.155 0 00-.132-1.255.4.4 0 00-.446-.389c-.158 0-1.287.182-2.391.389-.767.137-1.577.273-2.08.365a.331.331 0 01-.405-.163.237.237 0 01-.015-.133V20.83a.291.291 0 01.291-.3h3.829a.433.433 0 00.474-.379v-1.422a.422.422 0 00-.438-.41h-10.7a.434.434 0 00-.474.379v1.424a.422.422 0 00.438.41.132.132 0 00.036 0h3.572a.307.307 0 01.342.254.2.2 0 010 .044v5.478a.293.293 0 01-.285.3m39.8-9.838a24.645 24.645 0 003.914 1.917.476.476 0 00.369-.205c.368-.433.682-.89 1.024-1.3l.08-.114c.026-.023.026-.046.052-.046l.026-.114a.128.128 0 00.026-.1c-.026-.068-.052-.137-.109-.159l-.047-.041a.635.635 0 00-.184-.094c-.028-.024-.028-.024-.054-.024a26.168 26.168 0 01-10.588-7.166l-.052-.046a.47.47 0 00-.368-.137h-2.119a.451.451 0 00-.368.182 24.973 24.973 0 01-7.773 6.323c-.788.433-1.6.752-2.417 1.141a.465.465 0 00-.316.365.477.477 0 00.158.319c.316.366.6.731.893 1.12 0 .023 0 .023.026.046a.422.422 0 00.368.182 19.424 19.424 0 003.831-1.917.545.545 0 01.29-.1c.13 0 .236.116.236.343v.615a.423.423 0 00.438.412h11.674a.434.434 0 00.474-.379v-.785c0-.229.109-.343.236-.343a.539.539 0 01.285.1m-11.454-1.257a23.682 23.682 0 004.309-3.789.333.333 0 01.415-.127.291.291 0 01.132.1 26.552 26.552 0 004.572 3.816c.5.343.422.548-.21.548h-9.011c-.601.004-.679-.201-.207-.548zm1.131 11.161c.84-1.3 1.575-2.625 2.285-3.948a.419.419 0 01.316-.161h11.482a.433.433 0 00.472-.379.1.1 0 000-.031v-1.342a.422.422 0 00-.436-.412h-20.977a.437.437 0 00-.474.379v1.378a.423.423 0 00.438.41.132.132 0 00.036 0h5.543c.316 0 .422.161.342.389a31.288 31.288 0 01-2.155 4.108.48.48 0 01-.288.137l-3.206.1a.421.421 0 00-.472.347.412.412 0 000 .063c0 .205.052.475.078.731v.046c.054.228.132.5.158.706a.425.425 0 00.474.343c5.649-.205 11.3-.389 16.919-.685a.351.351 0 01.29.137 13.244 13.244 0 00.84 1.027c0 .023 0 .023.028.046a.645.645 0 00.368.138 3.834 3.834 0 00.92-.366c.394-.228.788-.433.946-.524a.389.389 0 00.236-.321.466.466 0 00-.049-.208c-.026-.023-.026-.068-.052-.068a33.009 33.009 0 00-5.675-5.432h-.026a.555.555 0 00-.316-.094 2.754 2.754 0 00-.814.3c-.342.159-.71.319-.815.365a.435.435 0 00-.288.366.456.456 0 00.184.319c.684.617 1.391 1.209 2.049 1.826.316.273.21.456-.236.475l-7.8.273c-.373.031-.477-.151-.319-.425m25.195-4.884c.631.592 1.261 1.186 1.919 1.779l.078.046c0 .023.054.023.08.046l.109.024a.2.2 0 00.109.023.692.692 0 00.316-.184l.6-.638c.028-.023.028-.023.028-.046a2.46 2.46 0 00.446-.708.418.418 0 00-.184-.319 12.659 12.659 0 00-1.813-1.393l-1.077-.8c-.184-.137-.368-.251-.547-.387a.25.25 0 01-.081-.379.173.173 0 01.029-.031 21.567 21.567 0 002.915-4.383.121.121 0 00.028-.094l.026-.1a.326.326 0 00-.184-.342 52.03 52.03 0 01-.605-.389h-.052a1.9 1.9 0 00-.688-.233c-.026-.023-.078 0-.109 0l-.132.023a.1.1 0 01-.078.023h-1.365a.305.305 0 01-.342-.252.2.2 0 010-.044V9.502a.425.425 0 00-.452-.387h-1.7a.429.429 0 00-.472.369v3.556a.289.289 0 01-.291.3.261.261 0 01-.05 0h-3.165a.437.437 0 00-.474.381v1.308a.423.423 0 00.438.41.132.132 0 00.036 0h5.8c.342 0 .474.184.29.435a20.5 20.5 0 01-7.068 6.253.386.386 0 00-.262.343.443.443 0 00.109.273c.288.433.526.822.767 1.235a.456.456 0 00.42.275 12.193 12.193 0 002.864-1.826.513.513 0 01.342-.159c.156 0 .236.137.236.387v7.262a.425.425 0 00.452.389h1.703a.431.431 0 00.472-.369v-7.943c0-.251.08-.389.238-.389a.64.64 0 01.34.184m8.145 5.61h-5.569a.434.434 0 00-.474.379v1.473a.425.425 0 00.438.412h14.09a.436.436 0 00.474-.381v-1.468a.425.425 0 00-.438-.412h-5.131a.305.305 0 01-.342-.252.2.2 0 010-.044v-8.238a.291.291 0 01.291-.3h4.568a.433.433 0 00.474-.379v-1.445a.422.422 0 00-.438-.41h-4.554a.306.306 0 01-.342-.254.183.183 0 010-.042V9.692a.427.427 0 00-.452-.389h-1.787a.431.431 0 00-.472.369v6.363a.291.291 0 01-.291.3.262.262 0 01-.05 0h-4.545a.422.422 0 00-.448.391v1.436a.413.413 0 00.423.41h4.568a.309.309 0 01.342.254.2.2 0 010 .044v8.238a.291.291 0 01-.291.3.261.261 0 01-.05 0zM27.207 3.442l-9-1.479V0H15.32v1.945l-8.7 1.507-1.673 7.659 2.832.49 1.306-5.967 7.6-1.317 8.071 1.325 1.302 5.958 2.83-.49z"/><path d="M26.518 31.941H7.091l-2.067-4.59 2.676-.952 1.343 2.98h15.55l2.435-5.187-10.346-2.076L3.9 24.786 0 15.223l16.4-4.011h.552L33.92 15.23l-2.059 4.344-2.661-.995.775-1.634-13.293-3.147-12.909 3.157 1.963 4.817 10.691-2.234h.5l14.083 2.828z"/></g></svg>