<svg xmlns="http://www.w3.org/2000/svg" width="210.409" height="21.461"><path d="M1.511 4.158a.43.43 0 00.442.417h19.346a.434.434 0 00.475-.384V2.636a.426.426 0 00-.44-.417H1.993a.437.437 0 00-.477.384v.033zm1.76 7.438a.427.427 0 00.442.417h15.486a.44.44 0 00.48-.384v-1.535a.426.426 0 00-.442-.414.1.1 0 00-.037 0H3.748a.437.437 0 00-.477.384.066.066 0 000 .03zm-3.272 7.899a.427.427 0 00.442.417h22.292a.438.438 0 00.48-.384v-1.555a.415.415 0 00-.433-.4H.478a.429.429 0 00-.477.352v1.564zm33.051-8.36c-.426 3.718-1.355 6.169-5.5 7.71-.4.161-.8.277-1.2.414-.161.07-.4.163-.4.37a.591.591 0 00.186.37 13.9 13.9 0 01.875 1.155c.03 0 .03.023.056.047a.488.488 0 00.426.161l.133-.023h.054c6.141-1.981 7.631-5.145 8.216-10.25a.332.332 0 01.347-.277h3.59a.31.31 0 01.345.256.141.141 0 010 .044v7.252c0 2.265.638 3.026 3.4 3.026h3.564c2.34 0 2.87-1.108 3.189-2.863a10.55 10.55 0 00.214-1.83.409.409 0 00-.321-.414h-.051c-.133-.047-.48-.186-.824-.3h-.05a4.1 4.1 0 00-.8-.277.346.346 0 00-.319.161c-.026 0-.026.051-.026.072l-.081.256v.044c-.026.3-.051.924-.109 1.478a2.279 2.279 0 01-.447 1.341.863.863 0 01-.587.161h-3.031c-.9 0-1.036-.114-1.036-.878v-7.229a.293.293 0 01.293-.3.188.188 0 01.051 0h6.516a.432.432 0 00.477-.354v-1.43a.426.426 0 00-.442-.414.088.088 0 00-.035 0h-9.92a.31.31 0 01-.345-.256.141.141 0 010-.044v-7.9a.43.43 0 00-.459-.393h-1.774a.413.413 0 00-.452.356v7.936a.3.3 0 01-.3.3h-9.752a.437.437 0 00-.477.384v1.415a.414.414 0 00.433.4h6.029a.32.32 0 01.347.275.207.207 0 010 .054M46.083.977l-.112-.023a.459.459 0 00-.477.277c-.426.854-.778 1.732-1.25 2.565-.48.854-1.01 1.709-1.569 2.563a.122.122 0 00-.028.1l-.051.163v.047a.406.406 0 00.319.345l.8.277a7.736 7.736 0 00.8.21.512.512 0 00.4-.163 47.785 47.785 0 003.378-5.427.464.464 0 00-.347-.393L46.139.987zM33.768 6.423a21.674 21.674 0 00-2.9-5.1.4.4 0 00-.37-.186 3.864 3.864 0 00-.826.254l-.824.277a.418.418 0 00-.319.347v.047l.054.14a.122.122 0 00.028.1 31.921 31.921 0 012.547 4.942.492.492 0 00.477.3 6.981 6.981 0 00.934-.255c.37-.137.8-.277.929-.324a.455.455 0 00.293-.347v-.044l-.026-.1zm19.439-4.228a23.813 23.813 0 013.457 3.257.518.518 0 00.4.184 2.66 2.66 0 00.878-.461l.85-.577a.351.351 0 00.186-.3c0-.482-3.669-3.627-4.2-3.627a2.416 2.416 0 00-.8.393l-.775.508a.379.379 0 00-.212.3.419.419 0 00.184.324zm20.717.624v.761a.413.413 0 00.433.393.31.31 0 00.047 0h1.56a.429.429 0 00.477-.354v-2.44a.43.43 0 00-.442-.42H60.173a.439.439 0 00-.477.384V3.58a.412.412 0 00.433.393.28.28 0 00.044 0c.533 0 .906.023 1.171.023a1.213 1.213 0 00.554-.1c.026-.023.054-.023.054-.047a.486.486 0 00.133-.417v-.043a3.983 3.983 0 000-.577.3.3 0 01.293-.3h11.2a.314.314 0 01.347.256v.049zm-7.268 14.02v1.15a.43.43 0 00.442.417h.037c.638 0 1.036.023 1.355.023h.054c.666-.07.745-.161.745-.74 0-.207-.026-.48-.026-.854a.294.294 0 01.293-.3h6.784a.437.437 0 00.477-.384.067.067 0 000-.03v-.947a.427.427 0 00-.442-.417h-6.762a.308.308 0 01-.345-.256.141.141 0 010-.044v-.368a.293.293 0 01.293-.3.189.189 0 01.051 0h4.973a.443.443 0 00.48-.384V7.389a.43.43 0 00-.459-.391h-4.993a.31.31 0 01-.345-.256.141.141 0 010-.044v-.417a.293.293 0 01.293-.3h5.638a.437.437 0 00.477-.384v-.908a.428.428 0 00-.442-.417h-5.62a.31.31 0 01-.345-.256.141.141 0 010-.044v-.694a.426.426 0 00-.442-.414h-.038c-.554 0-.985-.023-1.276-.023a1.192 1.192 0 00-.638.1.51.51 0 00-.214.482 3.668 3.668 0 000 .554.293.293 0 01-.293.3h-5.53a.441.441 0 00-.48.384v.91a.429.429 0 00.442.414h5.515a.31.31 0 01.345.256.141.141 0 010 .044v.417a.293.293 0 01-.293.3H61.53a.434.434 0 00-.477.375v5.999a.43.43 0 00.442.417h4.824a.308.308 0 01.345.256.141.141 0 010 .044v.368a.293.293 0 01-.293.3.188.188 0 01-.051 0h-6.492a.445.445 0 00-.48.386v.978a.427.427 0 00.442.414.1.1 0 00.037 0h6.488a.307.307 0 01.34.261.113.113 0 010 .04m2.607-7.506v-.508a.293.293 0 01.293-.3.189.189 0 01.051 0h2.693a.308.308 0 01.345.256.141.141 0 010 .044v.508a.293.293 0 01-.293.3h-2.738a.31.31 0 01-.345-.256.141.141 0 010-.044zm-5.874 0v-.508a.3.3 0 01.3-.3.189.189 0 01.051 0h2.579a.308.308 0 01.345.256.141.141 0 010 .044v.508a.293.293 0 01-.293.3h-2.633a.312.312 0 01-.347-.256v-.044m-7.71 7.394a21.574 21.574 0 01-2.319 1.59l-.531.347a1.4 1.4 0 00-.24.163.348.348 0 00-.186.3 2.912 2.912 0 00.4.831c.212.37.424.738.477.854a.489.489 0 00.426.277.636.636 0 00.372-.14c1.015-.715 1.918-1.527 2.875-2.333a.372.372 0 01.47-.009.156.156 0 01.035.033c2.107 2.032 5.052 2.379 8 2.449 1.038.023 2.074 0 3.059 0 1.727 0 3.4-.023 5.105-.047.691-.023 1.781 0 2.419-.07.293-.044.372-.114.452-.324.054-.161.505-1.432.505-1.546 0-.254-.291-.347-.531-.347-2.77.114-5.531.184-8.269.184-.824 0-1.755 0-2.687-.023-2.5 0-5.636-.414-7.1-2.379a.292.292 0 01-.051-.161V9.424a.429.429 0 00-.442-.414h-4.845a.438.438 0 00-.48.384v1.367a.43.43 0 00.459.393h2.386a.312.312 0 01.347.256v5.08a.331.331 0 01-.107.237m13.589-4.784v-.554a.293.293 0 01.293-.3.189.189 0 01.051 0h2.687a.31.31 0 01.345.256.141.141 0 010 .044v.554a.294.294 0 01-.293.3h-2.738a.31.31 0 01-.345-.256.141.141 0 010-.044m-5.874 0v-.554a.3.3 0 01.3-.3.189.189 0 01.051 0h2.579a.31.31 0 01.345.256.14.14 0 010 .044v.554a.3.3 0 01-.3.3h-2.632a.312.312 0 01-.347-.256v-.044zm19.811 5.983v3.117a.426.426 0 00.456.393h1.438a.438.438 0 00.477-.375v-3.136a.3.3 0 01.3-.3.189.189 0 01.051 0h3.243a.439.439 0 00.475-.389v-1.247a.427.427 0 00-.442-.414h-3.28a.312.312 0 01-.347-.256v-.945a.3.3 0 01.3-.3.189.189 0 01.051 0h2.768a.44.44 0 00.48-.384V7.138c0-.368.161-.414.372-.1a.484.484 0 00.112.137l.158.279c.133.161.265.391.533.391a4.746 4.746 0 001.329-.715l.691-.533c.265-.184.424-.114.424.163v.508a.43.43 0 00.459.393h6.535a.437.437 0 00.48-.375v-.619c0-.23.079-.347.212-.347a.613.613 0 01.319.14 7.907 7.907 0 002.049 1.25.426.426 0 00.4-.254c.24-.393.505-.761.8-1.155a.13.13 0 00.026-.1l.079-.163v-.1a.45.45 0 00-.237-.324A18.212 18.212 0 0197.782.289a.613.613 0 00-.426-.207h-1.79a.482.482 0 00-.426.23 16.834 16.834 0 01-5.822 5.566.168.168 0 01-.214-.009l-.026-.037a.241.241 0 00-.161-.068h-3.031a.31.31 0 01-.345-.256.141.141 0 010-.044v-.81a.3.3 0 01.293-.3h3.4a.438.438 0 00.48-.384v-1.2a.43.43 0 00-.442-.417h-3.386a.308.308 0 01-.345-.256.141.141 0 010-.044V.389a.431.431 0 00-.459-.393h-1.429a.437.437 0 00-.477.375v1.681a.293.293 0 01-.293.3.189.189 0 01-.051 0h-3.033a.442.442 0 00-.48.386v1.208a.43.43 0 00.442.417h3.073a.308.308 0 01.345.256.141.141 0 010 .044v.808a.3.3 0 01-.3.3h-2.71a.437.437 0 00-.477.384v7.489a.429.429 0 00.442.414h2.717a.312.312 0 01.347.256v.945a.3.3 0 01-.3.3.188.188 0 01-.051 0h-3.368a.438.438 0 00-.48.384v1.259a.43.43 0 00.442.417h3.413a.31.31 0 01.347.256v.044zM93.952 5.269a17.167 17.167 0 002.314-2.565.34.34 0 01.61 0 18.16 18.16 0 002.447 2.565c.372.324.265.531-.24.531h-4.9c-.48 0-.584-.207-.24-.531zm-8.7 3.534V7.762a.3.3 0 01.3-.3H86.8a.31.31 0 01.345.256.141.141 0 010 .044v1.041a.3.3 0 01-.3.3h-1.246a.312.312 0 01-.347-.256v-.044m-3.615 0V7.762a.293.293 0 01.293-.3h1.222a.31.31 0 01.345.256.141.141 0 010 .044v1.041a.294.294 0 01-.293.3h-1.227a.31.31 0 01-.345-.256.14.14 0 010-.044m17.123 12.264a.466.466 0 00.48.324 10.382 10.382 0 002.952-.277c.85-.347.9-1.041.9-1.709V9.126a.428.428 0 00-.442-.417h-1.232a.438.438 0 00-.48.384v10.311c0 .184-.112.254-.345.254h-1.647c-.265 0-.531.07-.531.37a2.254 2.254 0 00.161.507zm-6.381-4.065h1.676a.31.31 0 01.345.256.141.141 0 010 .044v2.314a.163.163 0 01-.109.161h-.054l-.112.023h-.629a.184.184 0 00-.112.023.3.3 0 00-.186.3v.042l.24.924a.541.541 0 00.505.347c1.648 0 2.393-.277 2.393-1.8V9.489a.427.427 0 00-.442-.414.088.088 0 00-.035 0h-5.287a.419.419 0 00-.454.375v11.519a.4.4 0 00.412.393h1.024a.434.434 0 00.477-.375v-3.688a.292.292 0 01.289-.3.224.224 0 01.056 0m5.08.531a.43.43 0 00.459.393h.978a.44.44 0 00.477-.375v-7.5a.428.428 0 00-.442-.414h-.994a.437.437 0 00-.477.384v7.515zm-12.203-5.471v-1.04a.3.3 0 01.3-.3h1.248a.31.31 0 01.345.256.141.141 0 010 .044v1.04a.3.3 0 01-.3.3h-1.242a.312.312 0 01-.347-.256v-.044m-3.615 0v-1.04a.293.293 0 01.293-.3h1.222a.31.31 0 01.345.256.141.141 0 010 .044v1.04a.294.294 0 01-.293.3h-1.227a.31.31 0 01-.345-.256.14.14 0 010-.044m10.4-.163v-.807a.293.293 0 01.293-.3.189.189 0 01.051 0h1.676a.31.31 0 01.345.256.141.141 0 010 .044v.808a.293.293 0 01-.293.3.189.189 0 01-.051 0h-1.679a.31.31 0 01-.345-.256.14.14 0 010-.044m0 3.073v-.881a.293.293 0 01.293-.3.189.189 0 01.051 0h1.676a.308.308 0 01.345.256.141.141 0 010 .044v.878a.294.294 0 01-.293.3h-1.727a.31.31 0 01-.345-.256.14.14 0 010-.044m20.819-3.72c.212.417.452.833.691 1.225 0 .023 0 .023.026.07l.081.07c0 .023.026.023.026.047s.054.044.079.068l.135.07c.051 0 .109.023.158 0a3.494 3.494 0 001.329-1.339 41.336 41.336 0 00-3.11-4.228.375.375 0 01-.054-.163v-.23a.3.3 0 01.3-.3h2.47a.437.437 0 00.477-.384.066.066 0 000-.03V4.782a.424.424 0 00-.442-.414.088.088 0 00-.035 0h-2.421a.31.31 0 01-.345-.256.141.141 0 010-.044V.418a.431.431 0 00-.459-.393h-1.665a.437.437 0 00-.477.375v3.669a.293.293 0 01-.293.3h-2.875a.437.437 0 00-.477.384v1.371a.425.425 0 00.442.414h2.535a.3.3 0 01.342.228.231.231 0 01-.023.142 20.173 20.173 0 01-3.7 7.575.168.168 0 01-.051.1l-.054.184v.116l.054.068c.026.07.026.116.051.116.293.417.533.831.778 1.25v.047l.158.186.186.1a.2.2 0 00.161.023c.452-.14 1.09-1.339 1.648-2.519.212-.438.4-.9.584-1.315.161-.37.293-.577.372-.577.112 0 .158.23.158.673v8.092a.43.43 0 00.459.393h1.669a.437.437 0 00.48-.375v-9.656c0-.417.079-.6.212-.6.1 0 .235.137.421.461m7.18 1.087a18.324 18.324 0 01-4.542 5.2c-.372.254-.745.508-1.143.761a.443.443 0 00-.24.347.516.516 0 00.186.324c.186.186.4.37.584.531l.054.047a3.945 3.945 0 00.426.482l.051.047a.475.475 0 00.293.137.169.169 0 00.112-.023l.186-.044a.026.026 0 00.026-.023h.054a19.4 19.4 0 004.866-5.059c.186-.277.347-.44.48-.44s.212.21.212.6v5.825a.43.43 0 00.459.393h1.669a.435.435 0 00.477-.375v-5.778c0-.463.081-.694.214-.694s.291.184.505.554a18.933 18.933 0 003.606 4.689l.054.023c0 .014.012.023.028.023l.212.1a.343.343 0 00.161.023.681.681 0 00.319-.161v-.051l1.169-1.057a.426.426 0 00.186-.324.456.456 0 00-.212-.347c-.347-.3-.719-.577-1.092-.924a19.155 19.155 0 01-3.615-4.805c-.133-.254 0-.414.319-.414h3.59a.443.443 0 00.48-.384v-1.3a.429.429 0 00-.442-.414h-5.143a.31.31 0 01-.345-.256.141.141 0 010-.044V6.584a.293.293 0 01.293-.3h4.332a.441.441 0 00.48-.384V4.575a.43.43 0 00-.442-.417h-4.318a.308.308 0 01-.345-.256.141.141 0 010-.044V.417a.431.431 0 00-.459-.393h-1.675a.437.437 0 00-.477.375v3.46a.293.293 0 01-.293.3.189.189 0 01-.051 0h-1.329a.318.318 0 01-.361-.249.257.257 0 01.014-.119 11.292 11.292 0 00.426-1.988.413.413 0 00-.347-.391h-.051c-.214-.023-.505-.1-.824-.14a6.108 6.108 0 00-.826-.1.424.424 0 00-.424.3v.047l-.081.345-.133.694a15.135 15.135 0 01-2.046 5.313.066.066 0 00-.028.047.356.356 0 00-.079.23.369.369 0 00.265.347c.133.07.454.254.778.417a3.135 3.135 0 00.743.345.518.518 0 00.372-.184l.054-.047a14.082 14.082 0 001.3-2.54.365.365 0 01.319-.207h2.256a.308.308 0 01.345.256.127.127 0 010 .042v2.936a.294.294 0 01-.293.3h-5.343a.441.441 0 00-.48.384v1.3a.426.426 0 00.442.414.1.1 0 00.037 0h3.723c.349 0 .477.168.319.421m26.218-5.659c.319 3.671 1.541 14.783 7.284 14.783 2.5 0 3.033-1.665 3.376-3.4a8.632 8.632 0 00.242-1.685c0-.254-.081-.3-.293-.417h-.054c-.13-.068-.505-.254-.847-.438a4.146 4.146 0 00-.826-.393.325.325 0 00-.319.207l-.051.14v.047l-.028.114c-.028.233-.054 1.11-.186 1.918-.161.831-.4 1.5-.8 1.5a2.31 2.31 0 01-1.648-1.017c-1.918-2.447-2.74-8.153-3.031-11.317a.3.3 0 01.289-.321.22.22 0 01.056 0h6.674a.444.444 0 00.48-.384V4.528a.426.426 0 00-.442-.414.1.1 0 00-.037 0h-6.884a.33.33 0 01-.347-.279c-.026-.761-.026-1.523-.026-2.309 0-.324.026-.691 0-1.015a.43.43 0 00-.459-.393h-1.939a.434.434 0 00-.477.375v.019c0 1.085.054 2.214.081 3.28a.269.269 0 01-.233.319.375.375 0 01-.114 0h-12.55a.441.441 0 00-.48.384V5.98a.43.43 0 00.442.417h12.8a.33.33 0 01.349.277m4.281-5.659a.343.343 0 00.026.647 32.8 32.8 0 012.924 2.286.6.6 0 00.347.163.4.4 0 00.319-.14h.054c.133-.116.426-.277.717-.508l.345-.3a.4.4 0 01.054-.07l.133-.207v-.047l.028-.07a.513.513 0 00-.133-.23 16.912 16.912 0 00-3.513-2.356 1.6 1.6 0 00-.687.347zm-12.765 16.7l-4.542.694a.4.4 0 00-.372.393l.028.114v.047l.477 1.478a.444.444 0 00.452.277h.133c2.607-.48 5.24-.992 7.866-1.5a127.15 127.15 0 004.069-.808.417.417 0 00.372-.393 10.61 10.61 0 00-.133-1.269.406.406 0 00-.452-.393c-.161 0-1.3.184-2.421.393-.775.137-1.595.277-2.1.368a.335.335 0 01-.41-.163.253.253 0 01-.016-.137v-4.943a.3.3 0 01.3-.3h3.878a.438.438 0 00.48-.384V9.748a.429.429 0 00-.442-.414H134.09a.437.437 0 00-.477.384.066.066 0 000 .03v1.411a.425.425 0 00.442.414h3.653a.31.31 0 01.345.256.141.141 0 010 .044v5.543a.3.3 0 01-.289.3m40.282-9.955a25.533 25.533 0 003.965 1.942.481.481 0 00.37-.21c.375-.438.694-.9 1.038-1.315l.081-.116c.026-.023.026-.047.051-.047l.026-.114a.117.117 0 00.028-.1c-.028-.068-.054-.137-.109-.161l-.054-.047a.8.8 0 00-.189-.1c-.026-.023-.026-.023-.051-.023A26.485 26.485 0 01172.484.216l-.049-.044a.474.474 0 00-.372-.14h-2.146a.474.474 0 00-.375.184 25.208 25.208 0 01-7.864 6.4c-.8.438-1.62.761-2.447 1.155a.472.472 0 00-.319.37.488.488 0 00.158.321c.319.37.612.74.9 1.134 0 .021 0 .021.028.044a.433.433 0 00.375.186 19.638 19.638 0 003.876-1.937.558.558 0 01.3-.1c.133 0 .24.116.24.347v.624a.426.426 0 00.442.414.088.088 0 00.035 0h11.78a.438.438 0 00.48-.384v-.794c0-.23.109-.347.237-.347a.522.522 0 01.282.113zm-11.59-1.272a23.931 23.931 0 004.358-3.834.338.338 0 01.419-.128.315.315 0 01.137.107 26.726 26.726 0 004.629 3.855c.5.347.426.556-.214.556h-9.121c-.611.002-.688-.207-.208-.556zm1.143 11.3c.847-1.315 1.592-2.656 2.309-3.995a.434.434 0 01.319-.163h11.624a.439.439 0 00.477-.384.067.067 0 000-.03V11.85a.424.424 0 00-.442-.414h-21.229a.437.437 0 00-.477.384v1.394a.423.423 0 00.44.414h5.65c.319 0 .424.163.345.393a31.493 31.493 0 01-2.184 4.158.452.452 0 01-.291.137l-3.243.1a.427.427 0 00-.477.352.285.285 0 000 .063c0 .21.054.482.077.74v.047c.054.23.135.508.161.715a.43.43 0 00.477.347c5.72-.207 11.438-.393 17.127-.694a.347.347 0 01.291.14c.268.347.587.761.85 1.038 0 .023 0 .023.028.047a.662.662 0 00.37.14 3.832 3.832 0 00.931-.37c.4-.23.8-.44.959-.531a.391.391 0 00.237-.324.484.484 0 00-.047-.212c-.026-.023-.026-.07-.056-.07a33.277 33.277 0 00-5.743-5.5h-.023a.572.572 0 00-.319-.1 2.852 2.852 0 00-.826.3c-.345.163-.719.324-.824.37a.44.44 0 00-.291.37.449.449 0 00.184.324c.694.624 1.408 1.225 2.077 1.848.319.277.21.461-.242.48l-7.894.277c-.379.033-.484-.154-.324-.431m25.5-4.942c.636.6 1.273 1.2 1.942 1.8l.077.047c0 .023.056.023.084.044l.109.023a.162.162 0 00.109.023.684.684 0 00.319-.184l.612-.647c.026-.023.026-.023.026-.047a2.4 2.4 0 00.454-.715.418.418 0 00-.189-.324 12.641 12.641 0 00-1.834-1.408l-1.087-.81c-.189-.137-.375-.254-.554-.391a.255.255 0 01-.086-.384l.03-.033a21.882 21.882 0 002.952-4.435.121.121 0 00.026-.1l.03-.1a.331.331 0 00-.189-.345c-.161-.1-.4-.256-.612-.393h-.051a1.923 1.923 0 00-.694-.23c-.026-.023-.077 0-.107 0l-.135.023a.124.124 0 01-.081.023h-1.383a.307.307 0 01-.342-.256.14.14 0 010-.044V.41a.431.431 0 00-.459-.393h-1.728a.433.433 0 00-.475.375v3.6a.3.3 0 01-.3.3h-3.252a.437.437 0 00-.48.384v1.325a.427.427 0 00.442.414.1.1 0 00.037 0h5.869c.347 0 .48.186.293.44a20.709 20.709 0 01-7.154 6.328.391.391 0 00-.263.347.433.433 0 00.109.277c.291.44.533.831.775 1.252a.464.464 0 00.424.277 12.173 12.173 0 002.9-1.848.533.533 0 01.349-.161c.158 0 .237.137.237.391v7.35a.431.431 0 00.459.393h1.723a.438.438 0 00.477-.375v-8.035c0-.254.081-.391.242-.391a.647.647 0 01.345.184m8.244 5.678h-5.641a.44.44 0 00-.48.384v1.49a.43.43 0 00.442.417h14.261a.441.441 0 00.482-.384v-1.488a.43.43 0 00-.445-.414.1.1 0 00-.037 0h-5.157a.307.307 0 01-.345-.256.14.14 0 010-.044V9.889a.293.293 0 01.293-.3.188.188 0 01.051 0h4.572a.442.442 0 00.482-.384V7.739a.43.43 0 00-.445-.414.1.1 0 00-.037 0h-4.572a.307.307 0 01-.345-.256.14.14 0 010-.044V.601a.431.431 0 00-.459-.391h-1.8a.435.435 0 00-.477.375v6.439a.291.291 0 01-.293.3h-4.651a.424.424 0 00-.452.4v1.45a.424.424 0 00.431.417h4.623a.306.306 0 01.342.256.141.141 0 010 .044v8.339a.291.291 0 01-.293.3h-.049z" fill="#1b1f23"/></svg>