<svg xmlns="http://www.w3.org/2000/svg" width="267.436" height="53.576"><defs><linearGradient id="a" y1="1" x2="1" y2="1" gradientUnits="objectBoundingBox"><stop offset="0" stop-color="#431598"/><stop offset="1" stop-color="#209ba5"/></linearGradient></defs><path d="M21.756.444A16.55 16.55 0 0113.8-1.443a18.007 18.007 0 01-5.882-4.995 23.011 23.011 0 01-3.626-7.1 27.436 27.436 0 01-1.258-8.292 28.25 28.25 0 012.294-10.915 34.4 34.4 0 016.364-9.99 32.912 32.912 0 019.657-7.289 26.69 26.69 0 0112.173-2.812q6.808 0 11.026 3.182a14.776 14.776 0 015.55 8.288L42.7-37a11.322 11.322 0 00-1.628-4 9.043 9.043 0 00-2.627-2.59 10.469 10.469 0 00-3.293-1.369 15.856 15.856 0 00-3.552-.407 16.074 16.074 0 00-8.214 2.146 21.866 21.866 0 00-6.329 5.52 26.286 26.286 0 00-4.07 7.437 23.625 23.625 0 00-1.443 7.918 20.8 20.8 0 00.814 5.883 15.511 15.511 0 002.368 4.884 11.462 11.462 0 003.811 3.33A10.635 10.635 0 0023.68-7.03a16.614 16.614 0 003.811-.481 15.954 15.954 0 004-1.554 20.1 20.1 0 003.774-2.7 19.261 19.261 0 003.293-3.922l6.068 3.922a20.873 20.873 0 01-4.44 5.217 28.878 28.878 0 01-5.776 3.81 30.81 30.81 0 01-6.4 2.368 26.08 26.08 0 01-6.254.814zm43.29.3a15.419 15.419 0 01-6.512-1.3A14.058 14.058 0 0153.8-4.033a14.93 14.93 0 01-2.923-5.106 19.206 19.206 0 01-1-6.253 22.655 22.655 0 011.85-8.991 25.475 25.475 0 015.032-7.659 24.446 24.446 0 017.511-5.328 21.893 21.893 0 019.287-2 15.674 15.674 0 016.549 1.295 14.359 14.359 0 014.81 3.478 14.564 14.564 0 012.96 5.143 19.539 19.539 0 011 6.29 22.215 22.215 0 01-1.85 8.88 25.256 25.256 0 01-5.071 7.624 25.454 25.454 0 01-7.548 5.365A21.726 21.726 0 0165.046.74zm1.554-6.96a11.083 11.083 0 005.069-1.258 14.716 14.716 0 004.4-3.441 17.826 17.826 0 003.108-5.069 16.023 16.023 0 001.184-6.142 11.692 11.692 0 00-2.257-7.363 7.233 7.233 0 00-6.031-2.923 10.614 10.614 0 00-5.032 1.295 15.942 15.942 0 00-4.4 3.478A17.385 17.385 0 0059.5-22.57a16.023 16.023 0 00-1.184 6.142A11.535 11.535 0 0060.569-9.1 7.267 7.267 0 0066.6-6.216zM99.826-38.7h7.326l-1.628 7.77a20.474 20.474 0 017.326-6.179 20.31 20.31 0 019.324-2.257 10.806 10.806 0 014.07.666 6.494 6.494 0 012.627 1.887 7.593 7.593 0 011.443 2.849 13.774 13.774 0 01.444 3.626 21.661 21.661 0 01-.259 3.256q-.259 1.7-.629 3.478L124.912 0h-8.14l4.588-21.682q.3-1.406.444-2.553a17.083 17.083 0 00.148-2.183q0-5.7-4.736-5.7a9.685 9.685 0 00-3.4.666 15.021 15.021 0 00-3.478 1.887 20.631 20.631 0 00-3.219 2.886 15.216 15.216 0 00-2.479 3.663L99.678 0h-8.14zM144.6.592a9 9 0 01-5.328-1.517 5.522 5.522 0 01-2.146-4.847 10.03 10.03 0 01.3-2.442l5.18-24.2h-4.966l1.406-6.29h4.81l2.738-12.728h8.14L152-38.7h7.992l-1.332 6.29h-7.918L146.15-10.8a6.233 6.233 0 00-.15 1.106 2.508 2.508 0 00.888 2.146 3.474 3.474 0 002.146.666 9.069 9.069 0 003.256-.592q1.554-.592 2.368-.962l.3 6.438a18.007 18.007 0 01-4.514 1.813 21.849 21.849 0 01-5.844.777zm29.522.148a12.972 12.972 0 01-5.809-1.258 13.016 13.016 0 01-4.329-3.4 14.906 14.906 0 01-2.7-5.069 20.612 20.612 0 01-.925-6.253 24.376 24.376 0 011.739-9.1 25.891 25.891 0 014.7-7.7 23.609 23.609 0 016.802-5.33 17.275 17.275 0 018.066-2 11.025 11.025 0 017.067 2.257 12.164 12.164 0 014.033 5.735l1.554-7.252h8.214l-6.212 29.01q-.074.37-.111.629a3.415 3.415 0 00-.037.481q0 1.48 1.7 1.554L196.4 0q-1.036.148-1.887.259a11.447 11.447 0 01-1.443.111q-4.81 0-4.81-3.848a18.33 18.33 0 01.518-3.552 19.048 19.048 0 01-6.808 5.772A17.457 17.457 0 01174.122.74zm3.552-6.956a9.4 9.4 0 003.145-.592 15.45 15.45 0 003.256-1.628A16.175 16.175 0 00187-10.878a12.6 12.6 0 002.146-3.034l2.072-10.138a9.841 9.841 0 00-1-3.293 10.068 10.068 0 00-1.961-2.664 8.987 8.987 0 00-2.59-1.776 7.168 7.168 0 00-2.96-.629 10.556 10.556 0 00-5.291 1.406 16.159 16.159 0 00-4.366 3.626 17.653 17.653 0 00-3 5.069 15.689 15.689 0 00-1.11 5.735 13.658 13.658 0 00.592 4.107 9.372 9.372 0 001.739 3.256 8.588 8.588 0 002.775 2.183 7.994 7.994 0 003.628.814zM221.26.74a15.93 15.93 0 01-6.586-1.3 14.032 14.032 0 01-4.847-3.515 14.949 14.949 0 01-2.96-5.18 19.539 19.539 0 01-1-6.29 22.784 22.784 0 011.813-8.954 24.246 24.246 0 015.032-7.585 25.236 25.236 0 017.548-5.291 22.24 22.24 0 019.435-2 15.3 15.3 0 019.324 2.627 12.515 12.515 0 014.736 6.993l-8.436 2.516a7.475 7.475 0 00-2.7-3.811 7.54 7.54 0 00-4.551-1.369 11.5 11.5 0 00-5.143 1.221 14.207 14.207 0 00-4.4 3.4 17.2 17.2 0 00-3.071 5.069A16.676 16.676 0 00214.3-16.5a13.658 13.658 0 00.6 4.1 9.734 9.734 0 001.7 3.256 8.125 8.125 0 002.627 2.146 7.277 7.277 0 003.367.777 10.07 10.07 0 002.812-.407 12.349 12.349 0 002.7-1.147 12.584 12.584 0 002.331-1.7 9.507 9.507 0 001.7-2.072l7.474 2.368a19.119 19.119 0 01-3.293 3.959 22.861 22.861 0 01-4.329 3.145A22.161 22.161 0 01226.884 0a21.46 21.46 0 01-5.624.74zm33.818-.148a9 9 0 01-5.328-1.517 5.522 5.522 0 01-2.15-4.847 10.03 10.03 0 01.3-2.442l5.18-24.2h-4.958l1.406-6.29h4.81l2.738-12.728h8.14L262.478-38.7h7.992l-1.332 6.29h-7.918l-4.588 21.61a6.234 6.234 0 00-.148 1.11 2.508 2.508 0 00.888 2.146 3.475 3.475 0 002.146.666 9.069 9.069 0 003.256-.592q1.554-.592 2.368-.962l.3 6.438a18.007 18.007 0 01-4.514 1.813 21.849 21.849 0 01-5.85.773z" transform="translate(-3.034 52.836)" fill="url(#a)"/></svg>