<svg xmlns="http://www.w3.org/2000/svg" width="246.198" height="54.76"><defs><linearGradient id="a" y1="1" x2="1" y2="1" gradientUnits="objectBoundingBox"><stop offset="0" stop-color="#431598"/><stop offset="1" stop-color="#209ba5"/></linearGradient></defs><path d="M17.982.518A31.1 31.1 0 017.289-1.295a23.492 23.492 0 01-8.547-5.291l5.4-7.1a9.32 9.32 0 002.035 2.146 17.9 17.9 0 003.48 2.179 26.178 26.178 0 004.588 1.7 20.408 20.408 0 005.439.7q5.328 0 8.14-2.109a6.935 6.935 0 002.812-5.883 4.526 4.526 0 00-.851-2.775 7.788 7.788 0 00-2.368-2.035 18.7 18.7 0 00-3.7-1.591q-2.183-.7-4.847-1.517a25.7 25.7 0 01-8.991-4.181 8.559 8.559 0 01-3.071-7.067 17.165 17.165 0 011.776-7.918 18.262 18.262 0 014.773-5.92 20.912 20.912 0 016.956-3.7 27.573 27.573 0 018.4-1.258 23.035 23.035 0 019.1 1.7 22.323 22.323 0 016.66 4.218l-5.18 6.808a6.077 6.077 0 00-1.628-1.739 16.67 16.67 0 00-2.812-1.739 18.232 18.232 0 00-3.663-1.332 17.185 17.185 0 00-4.255-.518q-5.624 0-8.325 2.405a7.9 7.9 0 00-2.7 6.179 4.556 4.556 0 00.666 2.516 5.753 5.753 0 002 1.813 18.2 18.2 0 003.293 1.443q1.961.666 4.551 1.332a42.365 42.365 0 015.587 1.85 17.99 17.99 0 014.253 2.449A9.714 9.714 0 0139-22.163a10.575 10.575 0 01.962 4.7A16.928 16.928 0 0138.147-9.4a16.287 16.287 0 01-4.884 5.624 20.905 20.905 0 01-7.03 3.256A32.461 32.461 0 0117.982.518zM60.606.74a16.072 16.072 0 01-6.549-1.258 14.322 14.322 0 01-4.847-3.441 14.664 14.664 0 01-3.034-5.18 19.69 19.69 0 01-1.036-6.475 22.966 22.966 0 011.813-9.028 23.8 23.8 0 015.032-7.548 24.765 24.765 0 017.622-5.217 23.1 23.1 0 019.509-1.961q5.994 0 9.583 2.7t3.589 7.955q0 12.136-21.682 12.136-3.182 0-7.178-.222v1.332a14.771 14.771 0 00.518 4A9.956 9.956 0 0055.5-8.214a6.99 6.99 0 002.664 2.183 8.853 8.853 0 003.848.777 12.81 12.81 0 006.142-1.591 12.139 12.139 0 004.662-4.329l6.438 2a19.013 19.013 0 01-3.441 4.033 22.666 22.666 0 01-4.477 3.108A24.864 24.864 0 0166.156 0a21.182 21.182 0 01-5.55.74zm7.474-34.114a12.576 12.576 0 00-4.884.925 13.413 13.413 0 00-3.922 2.479 15.128 15.128 0 00-2.886 3.589 22.738 22.738 0 00-1.924 4.255q3.4.222 6.29.222a37.908 37.908 0 006.586-.481 15.787 15.787 0 004.329-1.332 5.512 5.512 0 002.368-2.072 5.316 5.316 0 00.7-2.7 4.131 4.131 0 00-1.776-3.7 8.721 8.721 0 00-4.881-1.185zm24.2-5.328h7.548L97.9-30.044a25.488 25.488 0 016.364-6.438 12.378 12.378 0 017.03-2.442q.74 0 1.147.037a7.362 7.362 0 01.777.111l-1.554 7.1a18.838 18.838 0 00-8.288 2.183 16.151 16.151 0 00-6.216 5.809L92.13 0h-8.14zM115-38.7h8.436l3.4 31.82a148.782 148.782 0 009.583-15.91 84.235 84.235 0 006.253-15.91h7.622a87.735 87.735 0 01-8.029 19.351A150.848 150.848 0 01129.352 0h-8.658zm42.624 0h8.14L157.472 0h-8.14zm3.176-15.32h8.14l-1.85 8.954h-8.14zM183.816.74a15.93 15.93 0 01-6.586-1.3 14.032 14.032 0 01-4.847-3.515 14.949 14.949 0 01-2.96-5.18 19.539 19.539 0 01-1-6.29 22.784 22.784 0 011.813-8.954 24.246 24.246 0 015.032-7.585 25.236 25.236 0 017.548-5.291 22.24 22.24 0 019.435-2 15.3 15.3 0 019.324 2.627 12.515 12.515 0 014.736 6.993l-8.436 2.516a7.475 7.475 0 00-2.7-3.811 7.54 7.54 0 00-4.551-1.369 11.5 11.5 0 00-5.143 1.221 14.207 14.207 0 00-4.4 3.4 17.2 17.2 0 00-3.071 5.069 16.676 16.676 0 00-1.15 6.229 13.658 13.658 0 00.592 4.107 9.734 9.734 0 001.7 3.256 8.125 8.125 0 002.627 2.146 7.277 7.277 0 003.367.777 10.07 10.07 0 002.812-.407 12.349 12.349 0 002.7-1.147 12.584 12.584 0 002.331-1.7 9.507 9.507 0 001.7-2.072l7.474 2.368a19.119 19.119 0 01-3.293 3.959 22.861 22.861 0 01-4.329 3.145A22.161 22.161 0 01189.44 0a21.46 21.46 0 01-5.624.74zm39.442 0a16.072 16.072 0 01-6.549-1.258 14.322 14.322 0 01-4.847-3.441 14.664 14.664 0 01-3.034-5.18 19.689 19.689 0 01-1.036-6.475 22.966 22.966 0 011.813-9.028 23.8 23.8 0 015.032-7.548 24.765 24.765 0 017.622-5.217 23.1 23.1 0 019.509-1.961q5.994 0 9.583 2.7t3.589 7.955q0 12.136-21.682 12.136-3.182 0-7.178-.222v1.332a14.771 14.771 0 00.518 4 9.957 9.957 0 001.554 3.256 6.99 6.99 0 002.664 2.183 8.853 8.853 0 003.848.777 12.81 12.81 0 006.142-1.591 12.139 12.139 0 004.662-4.329l6.438 2a19.013 19.013 0 01-3.441 4.033 22.666 22.666 0 01-4.477 3.108 24.864 24.864 0 01-5.18 2.03 21.182 21.182 0 01-5.55.74zm7.474-34.114a12.576 12.576 0 00-4.884.925 13.413 13.413 0 00-3.922 2.479 15.128 15.128 0 00-2.886 3.589 22.739 22.739 0 00-1.924 4.255q3.4.222 6.29.222a37.908 37.908 0 006.586-.481 15.787 15.787 0 004.329-1.332 5.512 5.512 0 002.368-2.072 5.316 5.316 0 00.7-2.7 4.131 4.131 0 00-1.776-3.7 8.721 8.721 0 00-4.881-1.185z" transform="translate(1.258 54.02)" fill="url(#a)"/></svg>