<svg xmlns="http://www.w3.org/2000/svg" width="325.378" height="69.56"><defs><linearGradient id="a" y1="1" x2=".967" y2="1" gradientUnits="objectBoundingBox"><stop offset="0" stop-color="#431598"/><stop offset="1" stop-color="#209ba5"/></linearGradient></defs><path d="M21.756.444A16.55 16.55 0 0113.8-1.443a18.007 18.007 0 01-5.882-4.995 23.011 23.011 0 01-3.626-7.1 27.436 27.436 0 01-1.258-8.292 28.25 28.25 0 012.294-10.915 34.4 34.4 0 016.364-9.99 32.912 32.912 0 019.657-7.289 26.69 26.69 0 0112.173-2.812q6.808 0 11.026 3.182a14.776 14.776 0 015.55 8.288L42.7-37a11.322 11.322 0 00-1.628-4 9.043 9.043 0 00-2.627-2.59 10.469 10.469 0 00-3.293-1.369 15.856 15.856 0 00-3.552-.407 16.074 16.074 0 00-8.214 2.146 21.866 21.866 0 00-6.329 5.52 26.286 26.286 0 00-4.07 7.437 23.625 23.625 0 00-1.443 7.918 20.8 20.8 0 00.814 5.883 15.511 15.511 0 002.368 4.884 11.462 11.462 0 003.811 3.33A10.635 10.635 0 0023.68-7.03a16.614 16.614 0 003.811-.481 15.954 15.954 0 004-1.554 20.1 20.1 0 003.774-2.7 19.261 19.261 0 003.293-3.922l6.068 3.922a20.873 20.873 0 01-4.44 5.217 28.878 28.878 0 01-5.776 3.81 30.81 30.81 0 01-6.4 2.368 26.08 26.08 0 01-6.254.814zm43.29.3a15.419 15.419 0 01-6.512-1.3A14.058 14.058 0 0153.8-4.033a14.93 14.93 0 01-2.923-5.106 19.206 19.206 0 01-1-6.253 22.655 22.655 0 011.85-8.991 25.475 25.475 0 015.032-7.659 24.446 24.446 0 017.511-5.328 21.893 21.893 0 019.287-2 15.674 15.674 0 016.549 1.295 14.359 14.359 0 014.81 3.478 14.564 14.564 0 012.96 5.143 19.539 19.539 0 011 6.29 22.215 22.215 0 01-1.85 8.88 25.256 25.256 0 01-5.071 7.624 25.454 25.454 0 01-7.548 5.365A21.726 21.726 0 0165.046.74zm1.554-6.96a11.083 11.083 0 005.069-1.258 14.716 14.716 0 004.4-3.441 17.826 17.826 0 003.108-5.069 16.023 16.023 0 001.184-6.142 11.692 11.692 0 00-2.257-7.363 7.233 7.233 0 00-6.031-2.923 10.614 10.614 0 00-5.032 1.295 15.942 15.942 0 00-4.4 3.478A17.385 17.385 0 0059.5-22.57a16.023 16.023 0 00-1.184 6.142A11.535 11.535 0 0060.569-9.1 7.267 7.267 0 0066.6-6.216zM99.826-38.7h7.326l-1.628 7.77a20.053 20.053 0 016.919-6.216 17.469 17.469 0 018.4-2.22q4.44 0 6.623 2.331a9.632 9.632 0 012.331 6.475 24.377 24.377 0 017.178-6.549 16.365 16.365 0 018.288-2.257q4.81 0 6.734 2.59a10.877 10.877 0 011.924 6.66 22.076 22.076 0 01-.222 2.96q-.222 1.628-.592 3.552L148.074 0h-8.14l4.588-21.682a23.467 23.467 0 00.592-4.662q0-5.772-4.736-5.772a10.236 10.236 0 00-6.4 2.59 20.319 20.319 0 00-5.291 6.586L123.876 0h-8.14l4.588-21.682a18.456 18.456 0 00.481-2.59q.111-1.11.111-2.146a6.39 6.39 0 00-1.221-4.329 4.371 4.371 0 00-3.441-1.369 10.4 10.4 0 00-6.4 2.516 18.591 18.591 0 00-5.217 6.586L99.678 0h-8.14zm65.564 0h7.178l-1.48 6.956a23 23 0 016.66-5.55 16.363 16.363 0 017.992-2.072 12.568 12.568 0 015.7 1.258 12.547 12.547 0 014.255 3.441 15.711 15.711 0 012.664 5.106 20.611 20.611 0 01.925 6.253 24.646 24.646 0 01-1.7 9.028 25.7 25.7 0 01-4.625 7.7 23.3 23.3 0 01-6.734 5.328 17.056 17.056 0 01-8.029 2A11.509 11.509 0 01170.9-1.48a11.916 11.916 0 01-4.033-5.772l-4.884 23.014h-8.14zm11.618 32.484a10.623 10.623 0 005.254-1.406 15.949 15.949 0 004.4-3.626 17.652 17.652 0 003-5.069 15.689 15.689 0 001.11-5.735 13.4 13.4 0 00-.592-4.033 9.777 9.777 0 00-1.739-3.293 8.374 8.374 0 00-2.775-2.22 7.994 7.994 0 00-3.626-.814 9.4 9.4 0 00-3.145.592 15.45 15.45 0 00-3.256 1.628 17.041 17.041 0 00-2.923 2.405 10.542 10.542 0 00-2.072 3l-2.22 10.138a11.691 11.691 0 002.96 5.994 7.418 7.418 0 005.624 2.439zM217.19.74a12.972 12.972 0 01-5.809-1.258 13.016 13.016 0 01-4.329-3.4 14.906 14.906 0 01-2.7-5.069 20.612 20.612 0 01-.925-6.253 24.376 24.376 0 011.739-9.1 25.891 25.891 0 014.7-7.7 23.609 23.609 0 016.808-5.328 17.275 17.275 0 018.066-2 11.025 11.025 0 017.067 2.257 12.164 12.164 0 014.033 5.735l1.554-7.252h8.214L239.39-9.62q-.074.37-.111.629a3.415 3.415 0 00-.037.481q0 1.48 1.7 1.554L239.464 0q-1.036.148-1.887.259a11.446 11.446 0 01-1.443.111q-4.81 0-4.81-3.848a18.33 18.33 0 01.518-3.552 19.048 19.048 0 01-6.808 5.772A17.457 17.457 0 01217.19.74zm3.552-6.956a9.4 9.4 0 003.145-.592 15.45 15.45 0 003.256-1.628 16.175 16.175 0 002.923-2.442 12.6 12.6 0 002.146-3.034l2.072-10.138a9.84 9.84 0 00-1-3.293 10.068 10.068 0 00-1.961-2.664 8.987 8.987 0 00-2.59-1.776 7.168 7.168 0 00-2.96-.629 10.556 10.556 0 00-5.291 1.406 16.159 16.159 0 00-4.366 3.626 17.653 17.653 0 00-3 5.069 15.689 15.689 0 00-1.11 5.735 13.658 13.658 0 00.592 4.107 9.372 9.372 0 001.739 3.256 8.588 8.588 0 002.775 2.183 7.994 7.994 0 003.63.814zM255.818-38.7h7.326l-1.628 7.77a20.474 20.474 0 017.326-6.179 20.31 20.31 0 019.324-2.257 10.806 10.806 0 014.07.666 6.494 6.494 0 012.627 1.887 7.593 7.593 0 011.443 2.849 13.775 13.775 0 01.444 3.626 21.661 21.661 0 01-.259 3.256q-.259 1.7-.629 3.478L280.9 0h-8.14l4.588-21.682q.3-1.406.444-2.553a17.084 17.084 0 00.148-2.183q0-5.7-4.736-5.7a9.685 9.685 0 00-3.4.666 15.022 15.022 0 00-3.478 1.887 20.63 20.63 0 00-3.219 2.886 15.216 15.216 0 00-2.479 3.663L255.67 0h-8.14zm30.488 49.06a27.245 27.245 0 003.922-.629 11.719 11.719 0 002.886-1.11 9.622 9.622 0 002.331-1.85 25.546 25.546 0 002.255-2.849l2.148-3.108-6.956-39.514h8.362l4.366 31.522 2.516-4.144q2.738-4.44 4.7-8.029t3.367-6.771q1.406-3.182 2.4-6.216t1.817-6.362h7.992q-1.036 3.552-2.146 6.66a61.518 61.518 0 01-2.812 6.549q-1.7 3.441-4.181 7.7t-6.1 10.175l-5.92 9.546a68.727 68.727 0 01-4.884 6.956 26.637 26.637 0 01-4.625 4.551 15.987 15.987 0 01-4.847 2.516 18.479 18.479 0 01-5.476.777z" transform="translate(-3.034 52.836)" fill="url(#a)"/></svg>