<svg xmlns="http://www.w3.org/2000/svg" width="325.061" height="306.084" viewBox="0 0 325.061 306.084"><g transform="translate(-70.565 -68)" opacity="0.089"><path d="M227.883,32.984l-86.3-14.175V0H113.945V18.63L30.622,33.071,14.547,106.48l27.132,4.68L54.2,53.988l72.8-12.613,77.342,12.7,12.506,57.085,27.128-4.68Z" transform="translate(103.424 68)" fill="#004882"/><path d="M256.69,225.808H70.522L50.7,181.818,76.373,172.7l12.862,28.564H238.261l23.318-49.711-99.149-19.9-122.523,25.6L2.565,65.578,159.713,27.154H165L327.626,65.661l-19.742,41.632L282.413,97.77l7.422-15.659-127.4-30.167L38.725,82.194l18.8,46.162,102.444-21.4h4.759l135,27.1Z" transform="translate(68 148.276)" fill="#1c1b6a"/></g></svg>