<svg preserveAspectRatio="none" xmlns="http://www.w3.org/2000/svg" xmlns:xlink="http://www.w3.org/1999/xlink" width="1442" height="122" viewBox="0 0 1442 122"><defs><clipPath id="a"><rect width="1442" height="122" transform="translate(-696 5839)" fill="#fff"/></clipPath><linearGradient id="b" x1="0.5" x2="0.5" y2="1" gradientUnits="objectBoundingBox"><stop offset="0" stop-color="#513298"/><stop offset="0.315" stop-color="#5276bc"/><stop offset="0.685" stop-color="#679ede"/><stop offset="1" stop-color="#209ba5"/></linearGradient></defs><g transform="translate(696 -5839)" clip-path="url(#a)"><path d="M-1480.568,1087.9l-.965-578.973H-1483l1.433-521.693s10.789,23.738,370.789,23.738c190.44,0,434-40.595,701.549-53.89S-40.568-22.21-40.568-22.21l-1.2,510h1.2v591.665s-9.79-24.738-369.79-24.738c-190.44,0-434,40.594-701.549,53.89-43.765,2.175-83.062,3.084-118.205,3.084C-1409.817,1111.689-1480.568,1087.9-1480.568,1087.9Z" transform="translate(786.568 5885.654)" fill="url(#b)"/></g></svg>