<svg xmlns="http://www.w3.org/2000/svg" width="142.853" height="134.513" viewBox="0 0 142.853 134.513"><g transform="translate(-70.565 -68)"><path d="M108.3,14.5,70.375,8.265V0H58.229V8.187L21.611,14.533,14.547,46.794l11.924,2.057,5.5-25.125,31.995-5.543,33.989,5.581,5.5,25.087,11.922-2.057Z" transform="translate(76.851 68)" fill="#004882"/><path d="M114.244,114.456H32.429L23.721,95.124,35,91.118l5.652,12.553h65.492l10.248-21.846L72.82,73.077,18.976,84.328,2.565,44.04,71.626,27.154H73.95l71.467,16.922-8.676,18.3-11.193-4.185,3.262-6.882L72.82,38.049,18.456,51.342,26.72,71.629,71.74,62.223h2.092l59.33,11.91Z" transform="translate(68 88.058)" fill="#1c1b6a"/></g></svg>