<svg xmlns="http://www.w3.org/2000/svg" xmlns:xlink="http://www.w3.org/1999/xlink" width="253.056" height="31.94" viewBox="0 0 253.056 31.94"><defs><clipPath id="a"><rect width="253.056" height="31.94" fill="#fff"/></clipPath></defs><g transform="translate(0 0)"><g transform="translate(0 0)" clip-path="url(#a)"><path d="M29.24,9.7a.422.422,0,0,0,.438.41H48.792a.434.434,0,0,0,.472-.379.1.1,0,0,0,0-.031V8.192a.422.422,0,0,0-.436-.41H29.716a.434.434,0,0,0-.472.379v.031Zm1.738,7.348a.426.426,0,0,0,.438.412h15.3a.435.435,0,0,0,.474-.381V15.565a.425.425,0,0,0-.438-.412h-15.3a.436.436,0,0,0-.474.381v1.514Zm-3.23,7.805a.424.424,0,0,0,.436.412H50.211a.434.434,0,0,0,.472-.381V23.347a.408.408,0,0,0-.428-.389.4.4,0,0,0-.044,0H28.219a.425.425,0,0,0-.472.35.313.313,0,0,0,0,.039ZM60.4,16.592c-.42,3.675-1.339,6.1-5.437,7.618-.4.159-.789.275-1.183.412-.158.068-.394.159-.394.365a.561.561,0,0,0,.184.365,14.208,14.208,0,0,1,.867,1.142c.026,0,.026.023.052.046a.489.489,0,0,0,.42.159l.132-.023H55.1c6.069-1.959,7.542-5.086,8.119-10.129a.326.326,0,0,1,.342-.273H67.1a.307.307,0,0,1,.342.252.2.2,0,0,1,0,.044v7.166c0,2.236.63,2.99,3.362,2.99h3.52c2.313,0,2.838-1.1,3.154-2.83a10.228,10.228,0,0,0,.21-1.806.4.4,0,0,0-.316-.41h-.052c-.132-.046-.474-.182-.815-.3h-.052a4.334,4.334,0,0,0-.788-.273.349.349,0,0,0-.316.159c-.026,0-.026.05-.026.073l-.078.251v.046c-.028.3-.054.913-.111,1.461A2.222,2.222,0,0,1,74.7,24.42a.841.841,0,0,1-.578.159H71.124c-.893,0-1.025-.114-1.025-.867V16.569a.291.291,0,0,1,.291-.3.261.261,0,0,1,.05,0h6.437a.424.424,0,0,0,.472-.35l0-.039V14.51a.422.422,0,0,0-.438-.41H67.078a.306.306,0,0,1-.342-.254.185.185,0,0,1,0-.042V6a.424.424,0,0,0-.452-.389H64.529a.409.409,0,0,0-.448.353V13.8a.289.289,0,0,1-.291.3.245.245,0,0,1-.049,0H54.151a.434.434,0,0,0-.472.379.1.1,0,0,0,0,.031v1.37a.408.408,0,0,0,.426.389l.046,0h5.911a.315.315,0,0,1,.345.272.191.191,0,0,1,0,.052M73.279,6.55l-.111-.023A.453.453,0,0,0,72.7,6.8c-.42.845-.767,1.712-1.235,2.532-.472.845-1,1.689-1.549,2.534a.114.114,0,0,0-.026.094l-.054.161v.046a.411.411,0,0,0,.316.342l.788.273a7.107,7.107,0,0,0,.789.205.5.5,0,0,0,.394-.159,46.979,46.979,0,0,0,3.336-5.362.459.459,0,0,0-.342-.389l-1.787-.524ZM61.113,11.935A21.479,21.479,0,0,0,58.251,6.9a.409.409,0,0,0-.368-.182,3.851,3.851,0,0,0-.815.251l-.814.275a.407.407,0,0,0-.316.342v.046l.052.137a.13.13,0,0,0,.026.1,31.382,31.382,0,0,1,2.518,4.884.491.491,0,0,0,.474.3,7.3,7.3,0,0,0,.92-.251c.368-.138.788-.275.92-.321a.451.451,0,0,0,.29-.342V12.08l-.028-.1ZM80.319,7.759a23.513,23.513,0,0,1,3.416,3.217.51.51,0,0,0,.394.182A2.648,2.648,0,0,0,85,10.7l.84-.571a.344.344,0,0,0,.184-.3c0-.475-3.624-3.584-4.15-3.584a2.4,2.4,0,0,0-.789.389l-.765.5a.379.379,0,0,0-.212.3.421.421,0,0,0,.184.321Zm20.472.615v.754a.408.408,0,0,0,.428.389h1.587a.423.423,0,0,0,.47-.35l0-.039V6.75a.422.422,0,0,0-.436-.41H87.2a.434.434,0,0,0-.474.379V9.128a.41.41,0,0,0,.428.389H87.2c.526,0,.893.023,1.155.023a1.186,1.186,0,0,0,.548-.1c.026-.023.052-.023.052-.046a.477.477,0,0,0,.132-.41V8.943a4.183,4.183,0,0,0,0-.571.289.289,0,0,1,.291-.3.245.245,0,0,1,.049,0h11.013a.305.305,0,0,1,.342.252.228.228,0,0,1,0,.047ZM93.609,22.229V23.37a.423.423,0,0,0,.438.41h.036c.63,0,1.024.023,1.339.023h.054c.656-.068.736-.159.736-.731,0-.205-.028-.475-.028-.843a.293.293,0,0,1,.291-.3h6.7a.433.433,0,0,0,.474-.379v-.967a.422.422,0,0,0-.438-.41.132.132,0,0,0-.036,0H96.53a.309.309,0,0,1-.342-.254.2.2,0,0,1,0-.044v-.365a.291.291,0,0,1,.291-.3.261.261,0,0,1,.05,0h4.913a.435.435,0,0,0,.472-.381.1.1,0,0,0,0-.031V12.894a.425.425,0,0,0-.452-.389l-.02,0H96.53a.309.309,0,0,1-.342-.254.2.2,0,0,1,0-.044V11.8a.291.291,0,0,1,.291-.3.261.261,0,0,1,.05,0h5.517a.436.436,0,0,0,.474-.381v-.9a.423.423,0,0,0-.438-.41H96.53a.308.308,0,0,1-.342-.254.183.183,0,0,1,0-.042V8.832a.425.425,0,0,0-.438-.412h-.036c-.547,0-.972-.023-1.26-.023a1.193,1.193,0,0,0-.631.1.5.5,0,0,0-.21.475,3.852,3.852,0,0,0,0,.548.291.291,0,0,1-.291.3.261.261,0,0,1-.05,0H87.86a.434.434,0,0,0-.474.379v.9a.425.425,0,0,0,.438.412h5.447a.306.306,0,0,1,.342.252.2.2,0,0,1,0,.044v.41a.293.293,0,0,1-.291.3h-4.78a.431.431,0,0,0-.472.369V18.8a.424.424,0,0,0,.436.412h4.765a.306.306,0,0,1,.342.252.2.2,0,0,1,0,.044v.365a.293.293,0,0,1-.291.3H86.861a.435.435,0,0,0-.474.379v.967a.423.423,0,0,0,.438.41.132.132,0,0,0,.036,0h6.411a.3.3,0,0,1,.337.257.17.17,0,0,1,0,.041m2.575-7.418v-.5a.293.293,0,0,1,.291-.3h2.7a.308.308,0,0,1,.342.254v.545a.291.291,0,0,1-.291.3.261.261,0,0,1-.05,0H96.53a.307.307,0,0,1-.342-.252.2.2,0,0,1,0-.044Zm-5.8,0v-.5a.293.293,0,0,1,.291-.3h2.6a.307.307,0,0,1,.342.254.2.2,0,0,1,0,.044v.5a.291.291,0,0,1-.291.3.261.261,0,0,1-.05,0H90.723a.307.307,0,0,1-.342-.252.2.2,0,0,1,0-.044m-7.618,7.307a21.488,21.488,0,0,1-2.291,1.57l-.524.342a1.523,1.523,0,0,0-.238.161.347.347,0,0,0-.184.3,2.96,2.96,0,0,0,.394.822c.212.365.422.731.474.845a.486.486,0,0,0,.42.273.628.628,0,0,0,.368-.137c1-.708,1.9-1.51,2.843-2.306a.363.363,0,0,1,.464-.01.218.218,0,0,1,.034.033c2.08,2.01,4.993,2.352,7.909,2.42,1.024.023,2.049,0,3.021,0,1.707,0,3.362-.023,5.045-.046.682-.023,1.759,0,2.391-.068.288-.046.368-.114.446-.321.052-.159.5-1.414.5-1.528,0-.251-.29-.342-.526-.342-2.737.114-5.465.182-8.171.182-.814,0-1.733,0-2.653-.023-2.47,0-5.571-.412-7.016-2.352a.3.3,0,0,1-.052-.159V14.9a.422.422,0,0,0-.438-.41.12.12,0,0,0-.034,0H80.189a.433.433,0,0,0-.474.379v1.351a.424.424,0,0,0,.452.389h2.358a.305.305,0,0,1,.342.252.2.2,0,0,1,0,.044v4.975a.329.329,0,0,1-.1.236m13.425-4.728v-.548a.291.291,0,0,1,.291-.3.261.261,0,0,1,.05,0h2.653a.305.305,0,0,1,.342.252.2.2,0,0,1,0,.044v.548a.289.289,0,0,1-.291.3.261.261,0,0,1-.05,0H96.53a.308.308,0,0,1-.342-.254.183.183,0,0,1,0-.042m-5.8,0v-.548a.29.29,0,0,1,.291-.3.261.261,0,0,1,.05,0h2.549a.307.307,0,0,1,.342.252v.592a.291.291,0,0,1-.291.3.261.261,0,0,1-.05,0H90.723a.308.308,0,0,1-.342-.254.183.183,0,0,1,0-.042ZM109.96,23.3v3.081a.426.426,0,0,0,.452.389l.021,0h1.391a.431.431,0,0,0,.474-.369V23.3a.292.292,0,0,1,.291-.3h3.255a.431.431,0,0,0,.469-.382V21.384a.424.424,0,0,0-.436-.412h-3.242a.307.307,0,0,1-.342-.252.2.2,0,0,1,0-.044v-.89a.291.291,0,0,1,.291-.3.261.261,0,0,1,.05,0h2.737a.434.434,0,0,0,.472-.381.1.1,0,0,0,0-.031V12.643c0-.366.158-.412.368-.1a.5.5,0,0,0,.111.138l.156.273c.132.159.264.387.526.387a4.6,4.6,0,0,0,1.313-.708l.684-.524c.264-.182.422-.114.422.159v.5a.423.423,0,0,0,.452.387h6.456a.431.431,0,0,0,.474-.371v-.61c0-.228.078-.342.21-.342a.6.6,0,0,1,.316.137,7.793,7.793,0,0,0,2.023,1.235.423.423,0,0,0,.394-.251c.236-.387.5-.754.788-1.141a.114.114,0,0,0,.026-.094l.08-.161v-.094a.445.445,0,0,0-.236-.319,17.977,17.977,0,0,1-6.043-5.273.609.609,0,0,0-.422-.205h-1.769a.48.48,0,0,0-.42.228A16.646,16.646,0,0,1,116,11.4a.167.167,0,0,1-.21-.01.182.182,0,0,1-.026-.036.235.235,0,0,0-.158-.068h-2.995a.308.308,0,0,1-.342-.254.2.2,0,0,1,0-.044v-.8a.293.293,0,0,1,.291-.3h3.361a.434.434,0,0,0,.474-.379V8.329a.423.423,0,0,0-.438-.41h-3.346a.308.308,0,0,1-.342-.254.183.183,0,0,1,0-.042V5.979a.424.424,0,0,0-.452-.389l-.021,0H110.4a.429.429,0,0,0-.472.369l0,.018V7.623a.289.289,0,0,1-.291.3.261.261,0,0,1-.05,0h-2.995a.435.435,0,0,0-.474.379v1.2a.423.423,0,0,0,.438.41h3.035a.308.308,0,0,1,.342.254.183.183,0,0,1,0,.042V11a.291.291,0,0,1-.291.3.261.261,0,0,1-.05,0h-2.627a.436.436,0,0,0-.474.381v7.4a.422.422,0,0,0,.438.41.132.132,0,0,0,.036,0h2.65a.307.307,0,0,1,.34.254.2.2,0,0,1,0,.044v.89a.289.289,0,0,1-.291.3.244.244,0,0,1-.049,0h-3.338a.434.434,0,0,0-.472.379.1.1,0,0,0,0,.031v1.214a.422.422,0,0,0,.436.41.132.132,0,0,0,.036,0h3.338a.307.307,0,0,1,.34.254.2.2,0,0,1,0,.044Zm10.619-12.507a17.018,17.018,0,0,0,2.285-2.534.338.338,0,0,1,.605,0,18,18,0,0,0,2.417,2.534c.368.319.262.524-.236.524h-4.843c-.474,0-.578-.205-.238-.524Zm-8.6,3.491V13.259a.293.293,0,0,1,.293-.3.245.245,0,0,1,.049,0H113.5a.308.308,0,0,1,.342.254v1.069a.293.293,0,0,1-.291.3h-1.234a.308.308,0,0,1-.342-.254v-.044m-3.572,0V13.259a.291.291,0,0,1,.291-.3.261.261,0,0,1,.05,0H109.9a.308.308,0,0,1,.342.254.183.183,0,0,1,0,.042v1.027a.293.293,0,0,1-.291.3h-1.206a.306.306,0,0,1-.342-.254.2.2,0,0,1,0-.044m16.919,12.12a.458.458,0,0,0,.474.319,10.257,10.257,0,0,0,2.916-.273c.841-.342.893-1.027.893-1.689V14.606a.425.425,0,0,0-.438-.412h-1.217a.436.436,0,0,0-.474.381V24.761c0,.182-.109.251-.342.251h-1.629c-.262,0-.524.07-.524.366a2.208,2.208,0,0,0,.156.5Zm-6.3-4.017h1.655a.307.307,0,0,1,.342.252.2.2,0,0,1,0,.044v2.287a.165.165,0,0,1-.109.159h-.054l-.109.023h-.622a.167.167,0,0,0-.109.023.293.293,0,0,0-.184.3v.042l.236.913a.533.533,0,0,0,.5.342c1.629,0,2.365-.273,2.365-1.78V14.971a.422.422,0,0,0-.438-.41h-5.26a.415.415,0,0,0-.448.371l0,.039V26.314a.394.394,0,0,0,.405.387.17.17,0,0,0,.041,0h.973a.431.431,0,0,0,.472-.369V22.688a.29.29,0,0,1,.286-.3.315.315,0,0,1,.055,0m5.017.524a.425.425,0,0,0,.454.389h.965a.429.429,0,0,0,.472-.371l0-.018V15.519a.425.425,0,0,0-.438-.412h-.981a.437.437,0,0,0-.474.381v7.424ZM111.978,17.5V16.478a.293.293,0,0,1,.293-.3H113.5a.309.309,0,0,1,.342.254V17.5a.291.291,0,0,1-.291.3.261.261,0,0,1-.05,0h-1.183a.308.308,0,0,1-.342-.252V17.5m-3.572,0V16.478a.292.292,0,0,1,.291-.3H109.9a.309.309,0,0,1,.342.254.2.2,0,0,1,0,.044V17.5a.291.291,0,0,1-.291.3.261.261,0,0,1-.05,0h-1.155a.306.306,0,0,1-.342-.252.2.2,0,0,1,0-.044m10.272-.159v-.8a.291.291,0,0,1,.291-.3.261.261,0,0,1,.05,0h1.655a.307.307,0,0,1,.342.252.2.2,0,0,1,0,.044v.8a.291.291,0,0,1-.291.3.261.261,0,0,1-.05,0H119.02a.308.308,0,0,1-.342-.254.183.183,0,0,1,0-.042m0,3.035v-.867a.291.291,0,0,1,.291-.3.261.261,0,0,1,.05,0h1.655a.307.307,0,0,1,.342.252.2.2,0,0,1,0,.044v.867a.291.291,0,0,1-.291.3.261.261,0,0,1-.05,0H119.02a.308.308,0,0,1-.342-.252.2.2,0,0,1,0-.044m20.573-3.675c.21.41.446.822.682,1.209,0,.023,0,.023.028.068l.078.068c0,.023.026.023.026.046s.052.046.08.068l.13.07c.054,0,.111.023.158,0a3.455,3.455,0,0,0,1.313-1.325,41.028,41.028,0,0,0-3.074-4.176.384.384,0,0,1-.052-.159v-.228a.293.293,0,0,1,.291-.3.261.261,0,0,1,.05,0h2.391a.434.434,0,0,0,.474-.379V10.314a.422.422,0,0,0-.438-.41h-2.427a.308.308,0,0,1-.342-.254.185.185,0,0,1,0-.042V6a.425.425,0,0,0-.452-.389l-.02,0h-1.626a.431.431,0,0,0-.472.369V9.608a.291.291,0,0,1-.291.3.261.261,0,0,1-.05,0h-2.789a.435.435,0,0,0-.474.379v1.356a.423.423,0,0,0,.438.41h2.506a.294.294,0,0,1,.337.225.228.228,0,0,1-.023.142,19.927,19.927,0,0,1-3.652,7.485A.166.166,0,0,1,132,20l-.052.182v.114l.052.068c.026.068.026.114.052.114.29.412.526.822.767,1.237v.046l.158.182.184.094a.192.192,0,0,0,.158.023c.446-.137,1.077-1.323,1.629-2.487.21-.435.394-.89.578-1.3.158-.366.288-.571.368-.571.109,0,.158.228.158.666v8a.426.426,0,0,0,.452.389l.02,0h1.629a.431.431,0,0,0,.474-.369V16.842c0-.41.078-.592.21-.592.1,0,.233.137.417.456m7.092,1.072a18.078,18.078,0,0,1-4.487,5.135c-.368.252-.736.5-1.131.754a.444.444,0,0,0-.236.342.524.524,0,0,0,.184.321c.184.182.394.365.578.524l.054.046a3.861,3.861,0,0,0,.42.477l.052.046a.459.459,0,0,0,.29.137.2.2,0,0,0,.109-.023l.184-.046a.025.025,0,0,0,.026-.023h.052a19.144,19.144,0,0,0,4.809-5c.184-.273.342-.433.472-.433s.21.205.21.594v5.755a.426.426,0,0,0,.454.389l.02,0h1.629a.431.431,0,0,0,.472-.369l0-.018V20.7c0-.456.078-.685.21-.685s.288.184.5.548a18.742,18.742,0,0,0,3.566,4.633l.052.023a.025.025,0,0,0,.026.023l.21.094a.373.373,0,0,0,.158.023.648.648,0,0,0,.316-.159V25.15L156.7,24.1a.424.424,0,0,0,.184-.319.455.455,0,0,0-.21-.343c-.342-.3-.71-.57-1.077-.913a18.953,18.953,0,0,1-3.574-4.747c-.13-.251,0-.41.316-.41h3.548a.434.434,0,0,0,.472-.379V15.7a.422.422,0,0,0-.436-.41h-5.081a.308.308,0,0,1-.342-.254.183.183,0,0,1,0-.042v-2.9a.291.291,0,0,1,.291-.3.261.261,0,0,1,.05,0h4.23a.434.434,0,0,0,.474-.379v-1.31a.422.422,0,0,0-.438-.41h-4.266a.308.308,0,0,1-.342-.254.2.2,0,0,1,0-.044V6a.425.425,0,0,0-.452-.389l-.02,0h-1.629a.431.431,0,0,0-.474.369V9.4a.292.292,0,0,1-.291.3.261.261,0,0,1-.05,0h-1.313a.317.317,0,0,1-.356-.247.25.25,0,0,1,.015-.119,11.156,11.156,0,0,0,.42-1.963.409.409,0,0,0-.34-.387h-.054c-.21-.023-.5-.094-.814-.137a6.193,6.193,0,0,0-.815-.1.419.419,0,0,0-.42.3v.046l-.078.342-.132.685a14.971,14.971,0,0,1-2.023,5.249.066.066,0,0,0-.026.046.352.352,0,0,0-.08.229.363.363,0,0,0,.264.342c.13.068.446.251.767.41a3.041,3.041,0,0,0,.736.343.516.516,0,0,0,.368-.184l.052-.046A13.9,13.9,0,0,0,145.035,12a.365.365,0,0,1,.316-.205h2.228a.305.305,0,0,1,.342.252.2.2,0,0,1,0,.044v2.9a.29.29,0,0,1-.291.3.261.261,0,0,1-.05,0h-5.227a.434.434,0,0,0-.474.381v1.286a.422.422,0,0,0,.438.41.132.132,0,0,0,.036,0h3.678c.345,0,.472.164.314.415m25.906-5.592c.316,3.629,1.525,14.606,7.2,14.606,2.469,0,2.995-1.642,3.336-3.354a8.515,8.515,0,0,0,.236-1.667c0-.251-.078-.3-.288-.41h-.054c-.13-.068-.5-.252-.84-.435a3.95,3.95,0,0,0-.815-.387.317.317,0,0,0-.316.205l-.052.137v.046l-.026.114c-.026.229-.052,1.1-.184,1.894-.158.822-.394,1.484-.788,1.484a2.281,2.281,0,0,1-1.629-1c-1.893-2.42-2.706-8.056-3-11.184a.3.3,0,0,1,.286-.317c.02,0,.037,0,.055,0h6.594a.434.434,0,0,0,.474-.379v-1.47a.422.422,0,0,0-.438-.41.132.132,0,0,0-.036,0h-6.8a.328.328,0,0,1-.342-.275c-.026-.752-.026-1.505-.026-2.282,0-.319.026-.685,0-1a.425.425,0,0,0-.452-.389l-.02,0h-1.9a.431.431,0,0,0-.472.369v.018c0,1.072.052,2.187.078,3.24a.266.266,0,0,1-.229.317.372.372,0,0,1-.112,0h-12.4a.433.433,0,0,0-.474.379V11.5a.422.422,0,0,0,.438.41H171.9a.328.328,0,0,1,.345.273m4.23-5.59a.412.412,0,0,0-.21.319.4.4,0,0,0,.236.319,32.836,32.836,0,0,1,2.89,2.261.593.593,0,0,0,.342.159.4.4,0,0,0,.316-.137h.052c.132-.116.42-.275.71-.5l.342-.3a.345.345,0,0,1,.052-.068l.132-.207V8.4l.026-.068a.509.509,0,0,0-.132-.228,16.766,16.766,0,0,0-3.468-2.327,1.608,1.608,0,0,0-.682.342ZM163.867,23.1l-4.489.684a.391.391,0,0,0-.368.389l.028.114v.046l.472,1.46a.44.44,0,0,0,.448.275h.13c2.575-.477,5.177-.981,7.773-1.484,1.341-.251,2.68-.5,4.02-.8a.41.41,0,0,0,.368-.387,10.155,10.155,0,0,0-.132-1.255.4.4,0,0,0-.446-.389c-.158,0-1.287.182-2.391.389-.767.137-1.577.273-2.08.365a.331.331,0,0,1-.405-.163.237.237,0,0,1-.015-.133V17.322a.291.291,0,0,1,.291-.3H170.9a.433.433,0,0,0,.474-.379V15.221a.422.422,0,0,0-.438-.41h-10.7a.434.434,0,0,0-.474.379v1.424a.422.422,0,0,0,.438.41.132.132,0,0,0,.036,0h3.572a.307.307,0,0,1,.342.254.2.2,0,0,1,0,.044V22.8a.293.293,0,0,1-.285.3m39.8-9.838a24.645,24.645,0,0,0,3.914,1.917.476.476,0,0,0,.369-.205c.368-.433.682-.89,1.024-1.3l.08-.114c.026-.023.026-.046.052-.046l.026-.114a.128.128,0,0,0,.026-.1c-.026-.068-.052-.137-.109-.159L209,13.1a.635.635,0,0,0-.184-.094c-.028-.024-.028-.024-.054-.024a26.168,26.168,0,0,1-10.588-7.166l-.052-.046a.47.47,0,0,0-.368-.137h-2.119a.451.451,0,0,0-.368.182,24.973,24.973,0,0,1-7.773,6.323c-.788.433-1.6.752-2.417,1.141a.465.465,0,0,0-.316.365.477.477,0,0,0,.158.319c.316.366.6.731.893,1.12,0,.023,0,.023.026.046a.422.422,0,0,0,.368.182,19.424,19.424,0,0,0,3.831-1.917.545.545,0,0,1,.29-.1c.13,0,.236.116.236.343v.615a.423.423,0,0,0,.438.412h11.674a.434.434,0,0,0,.474-.379V13.5c0-.229.109-.343.236-.343a.539.539,0,0,1,.285.1M192.216,12a23.682,23.682,0,0,0,4.309-3.789.333.333,0,0,1,.415-.127.291.291,0,0,1,.132.1A26.552,26.552,0,0,0,201.644,12c.5.343.422.548-.21.548h-9.011C191.822,12.552,191.744,12.347,192.216,12Zm1.131,11.161c.84-1.3,1.575-2.625,2.285-3.948a.419.419,0,0,1,.316-.161h11.482a.433.433,0,0,0,.472-.379.1.1,0,0,0,0-.031V17.3a.422.422,0,0,0-.436-.412H186.489a.437.437,0,0,0-.474.379v1.378a.423.423,0,0,0,.438.41.132.132,0,0,0,.036,0h5.543c.316,0,.422.161.342.389a31.288,31.288,0,0,1-2.155,4.108.48.48,0,0,1-.288.137l-3.206.1a.421.421,0,0,0-.472.347.412.412,0,0,0,0,.063c0,.205.052.475.078.731v.046c.054.228.132.5.158.706a.425.425,0,0,0,.474.343c5.649-.205,11.3-.389,16.919-.685a.351.351,0,0,1,.29.137,13.244,13.244,0,0,0,.84,1.027c0,.023,0,.023.028.046a.645.645,0,0,0,.368.138,3.834,3.834,0,0,0,.92-.366c.394-.228.788-.433.946-.524a.389.389,0,0,0,.236-.321.466.466,0,0,0-.049-.208c-.026-.023-.026-.068-.052-.068a33.009,33.009,0,0,0-5.675-5.432h-.026a.555.555,0,0,0-.316-.094,2.754,2.754,0,0,0-.814.3c-.342.159-.71.319-.815.365a.435.435,0,0,0-.288.366.456.456,0,0,0,.184.319c.684.617,1.391,1.209,2.049,1.826.316.273.21.456-.236.475l-7.8.273c-.373.031-.477-.151-.319-.425m25.195-4.884c.631.592,1.261,1.186,1.919,1.779l.078.046c0,.023.054.023.08.046l.109.024a.2.2,0,0,0,.109.023.692.692,0,0,0,.316-.184l.6-.638c.028-.023.028-.023.028-.046a2.46,2.46,0,0,0,.446-.708.418.418,0,0,0-.184-.319,12.659,12.659,0,0,0-1.813-1.393l-1.077-.8c-.184-.137-.368-.251-.547-.387a.25.25,0,0,1-.081-.379.173.173,0,0,1,.029-.031,21.567,21.567,0,0,0,2.915-4.383.121.121,0,0,0,.028-.094l.026-.1a.326.326,0,0,0-.184-.342c-.158-.1-.394-.251-.605-.389h-.052A1.9,1.9,0,0,0,220,9.782c-.026-.023-.078,0-.109,0l-.132.023a.1.1,0,0,1-.078.023h-1.365a.305.305,0,0,1-.342-.252.2.2,0,0,1,0-.044V5.994a.425.425,0,0,0-.452-.387h-1.7a.429.429,0,0,0-.472.369l0,.018V9.532a.289.289,0,0,1-.291.3.261.261,0,0,1-.05,0h-3.165a.437.437,0,0,0-.474.381v1.308a.423.423,0,0,0,.438.41.132.132,0,0,0,.036,0h5.8c.342,0,.474.184.29.435a20.5,20.5,0,0,1-7.068,6.253.386.386,0,0,0-.262.343.443.443,0,0,0,.109.273c.288.433.526.822.767,1.235a.456.456,0,0,0,.42.275,12.193,12.193,0,0,0,2.864-1.826.513.513,0,0,1,.342-.159c.156,0,.236.137.236.387v7.262a.425.425,0,0,0,.452.389l.02,0h1.683a.431.431,0,0,0,.472-.369V18.486c0-.251.08-.389.238-.389a.64.64,0,0,1,.34.184m8.145,5.61h-5.569a.434.434,0,0,0-.474.379v1.473a.425.425,0,0,0,.438.412h14.09a.436.436,0,0,0,.474-.381V24.306a.425.425,0,0,0-.438-.412h-5.131a.305.305,0,0,1-.342-.252.2.2,0,0,1,0-.044V15.36a.291.291,0,0,1,.291-.3h4.568a.433.433,0,0,0,.474-.379V13.236a.422.422,0,0,0-.438-.41h-4.554a.306.306,0,0,1-.342-.254.183.183,0,0,1,0-.042V6.184a.427.427,0,0,0-.452-.389l-.021,0H227.5a.431.431,0,0,0-.472.369v6.363a.291.291,0,0,1-.291.3.262.262,0,0,1-.05,0h-4.545a.422.422,0,0,0-.448.391l0,.02v1.416a.413.413,0,0,0,.423.41h4.568a.309.309,0,0,1,.342.254.2.2,0,0,1,0,.044V23.6a.291.291,0,0,1-.291.3.261.261,0,0,1-.05,0Z" transform="translate(17.41 3.508)" fill="#fff"/><path d="M25.3,3.442l-9-1.479V0H13.413V1.945l-8.7,1.507L3.04,11.111l2.832.49L7.178,5.634l7.6-1.317,8.071,1.325L24.151,11.6l2.83-.49Z" transform="translate(1.907 0)" fill="#fff"/><path d="M26.518,27.618H7.091L5.024,23.028,7.7,22.076l1.343,2.98h15.55l2.435-5.187L16.682,17.793,3.9,20.463,0,10.9,16.4,6.889h.552L33.92,10.907l-2.059,4.344L29.2,14.256l.775-1.634L16.682,9.475,3.773,12.632l1.963,4.817,10.691-2.234h.5L31.01,18.043Z" transform="translate(0 4.323)" fill="#fff"/></g></g></svg>