<svg xmlns="http://www.w3.org/2000/svg" width="210.409" height="21.461" viewBox="0 0 210.409 21.461"><path d="M1.512,90.869a.43.43,0,0,0,.442.417H21.3a.434.434,0,0,0,.475-.384V89.347a.426.426,0,0,0-.44-.417H1.994a.437.437,0,0,0-.477.384v.033Zm1.76,7.438a.427.427,0,0,0,.442.417H19.2a.44.44,0,0,0,.48-.384V96.805a.426.426,0,0,0-.442-.414.1.1,0,0,0-.037,0H3.749a.437.437,0,0,0-.477.384.066.066,0,0,0,0,.03ZM0,106.206a.427.427,0,0,0,.442.417H22.734a.438.438,0,0,0,.48-.384v-1.555a.415.415,0,0,0-.433-.4l-.047,0H.479a.429.429,0,0,0-.477.352v1.564Zm33.051-8.36c-.426,3.718-1.355,6.169-5.5,7.71-.4.161-.8.277-1.2.414-.161.07-.4.163-.4.37a.591.591,0,0,0,.186.37,13.9,13.9,0,0,1,.875,1.155c.03,0,.03.023.056.047a.488.488,0,0,0,.426.161l.133-.023h.054c6.141-1.981,7.631-5.145,8.216-10.25a.332.332,0,0,1,.347-.277h3.59a.31.31,0,0,1,.345.256.141.141,0,0,1,0,.044v7.252c0,2.265.638,3.026,3.4,3.026h3.564c2.34,0,2.87-1.108,3.189-2.863a10.55,10.55,0,0,0,.214-1.83.409.409,0,0,0-.321-.414h-.051c-.133-.047-.48-.186-.824-.3H49.3a4.1,4.1,0,0,0-.8-.277.346.346,0,0,0-.319.161c-.026,0-.026.051-.026.072l-.081.256v.044c-.026.3-.051.924-.109,1.478a2.279,2.279,0,0,1-.447,1.341.863.863,0,0,1-.587.161H43.9c-.9,0-1.036-.114-1.036-.878V97.823a.293.293,0,0,1,.293-.3.188.188,0,0,1,.051,0h6.516a.432.432,0,0,0,.477-.354V95.739a.426.426,0,0,0-.442-.414.088.088,0,0,0-.035,0h-9.92a.31.31,0,0,1-.345-.256.141.141,0,0,1,0-.044v-7.9A.43.43,0,0,0,39,86.732H37.226a.413.413,0,0,0-.452.356v7.936a.3.3,0,0,1-.3.3H26.722a.437.437,0,0,0-.477.384v1.415a.414.414,0,0,0,.433.4l.044,0h5.985a.32.32,0,0,1,.347.275.207.207,0,0,1,0,.054m13.03-10.164-.112-.023a.459.459,0,0,0-.477.277c-.426.854-.778,1.732-1.25,2.565-.48.854-1.01,1.709-1.569,2.563a.122.122,0,0,0-.028.1l-.051.163v.047a.406.406,0,0,0,.319.345l.8.277a7.736,7.736,0,0,0,.8.21.512.512,0,0,0,.4-.163,47.785,47.785,0,0,0,3.378-5.427.464.464,0,0,0-.347-.393l-1.807-.531ZM33.769,93.134a21.674,21.674,0,0,0-2.9-5.1.4.4,0,0,0-.37-.186,3.864,3.864,0,0,0-.826.254l-.824.277a.418.418,0,0,0-.319.347v.047l.054.14a.122.122,0,0,0,.028.1,31.921,31.921,0,0,1,2.547,4.942.492.492,0,0,0,.477.3A6.981,6.981,0,0,0,32.57,94c.37-.137.8-.277.929-.324a.455.455,0,0,0,.293-.347v-.044l-.026-.1Zm19.439-4.228a23.813,23.813,0,0,1,3.457,3.257.518.518,0,0,0,.4.184,2.66,2.66,0,0,0,.878-.461l.85-.577a.351.351,0,0,0,.186-.3c0-.482-3.669-3.627-4.2-3.627a2.416,2.416,0,0,0-.8.393l-.775.508a.379.379,0,0,0-.212.3.419.419,0,0,0,.184.324Zm20.717.624v.761a.413.413,0,0,0,.433.393.31.31,0,0,0,.047,0h1.56a.429.429,0,0,0,.477-.354l0-.04v-2.4A.43.43,0,0,0,76,87.47H60.174a.439.439,0,0,0-.477.384v2.437a.412.412,0,0,0,.433.393.28.28,0,0,0,.044,0c.533,0,.906.023,1.171.023a1.213,1.213,0,0,0,.554-.1c.026-.023.054-.023.054-.047a.486.486,0,0,0,.133-.417V90.1a3.983,3.983,0,0,0,0-.577.3.3,0,0,1,.293-.3h11.2a.314.314,0,0,1,.347.256l0,.049ZM66.657,103.55V104.7a.43.43,0,0,0,.442.417h.037c.638,0,1.036.023,1.355.023h.054c.666-.07.745-.161.745-.74,0-.207-.026-.48-.026-.854a.294.294,0,0,1,.293-.3h6.784a.437.437,0,0,0,.477-.384.067.067,0,0,0,0-.03v-.947a.427.427,0,0,0-.442-.417H69.614a.308.308,0,0,1-.345-.256.141.141,0,0,1,0-.044V100.8a.293.293,0,0,1,.293-.3.189.189,0,0,1,.051,0h4.973a.443.443,0,0,0,.48-.384V94.1a.43.43,0,0,0-.459-.391H69.614a.31.31,0,0,1-.345-.256.141.141,0,0,1,0-.044v-.417a.293.293,0,0,1,.293-.3H75.2a.437.437,0,0,0,.477-.384V91.4a.428.428,0,0,0-.442-.417h-5.62a.31.31,0,0,1-.345-.256.141.141,0,0,1,0-.044v-.694a.426.426,0,0,0-.442-.414H68.79c-.554,0-.985-.023-1.276-.023a1.192,1.192,0,0,0-.638.1.51.51,0,0,0-.214.482,3.668,3.668,0,0,0,0,.554.293.293,0,0,1-.293.3H60.839a.441.441,0,0,0-.48.384v.91a.429.429,0,0,0,.442.414h5.515a.31.31,0,0,1,.345.256.141.141,0,0,1,0,.044v.417a.293.293,0,0,1-.293.3H61.531a.434.434,0,0,0-.477.375l0,.016v5.983a.43.43,0,0,0,.442.417h4.824a.308.308,0,0,1,.345.256.141.141,0,0,1,0,.044v.368a.293.293,0,0,1-.293.3.188.188,0,0,1-.051,0H59.829a.445.445,0,0,0-.48.386v.978a.427.427,0,0,0,.442.414.1.1,0,0,0,.037,0h6.488a.307.307,0,0,1,.34.261.113.113,0,0,1,0,.04m2.607-7.506v-.508a.293.293,0,0,1,.293-.3.189.189,0,0,1,.051,0H72.3a.308.308,0,0,1,.345.256.141.141,0,0,1,0,.044v.508a.293.293,0,0,1-.293.3H69.614a.31.31,0,0,1-.345-.256.141.141,0,0,1,0-.044Zm-5.874,0v-.508a.3.3,0,0,1,.3-.3.189.189,0,0,1,.051,0h2.579a.308.308,0,0,1,.345.256.141.141,0,0,1,0,.044v.508a.293.293,0,0,1-.293.3H63.738a.312.312,0,0,1-.347-.256v-.044m-7.71,7.394a21.574,21.574,0,0,1-2.319,1.59l-.531.347a1.4,1.4,0,0,0-.24.163.348.348,0,0,0-.186.3,2.912,2.912,0,0,0,.4.831c.212.37.424.738.477.854a.489.489,0,0,0,.426.277.636.636,0,0,0,.372-.14c1.015-.715,1.918-1.527,2.875-2.333a.372.372,0,0,1,.47-.009.156.156,0,0,1,.035.033c2.107,2.032,5.052,2.379,8,2.449,1.038.023,2.074,0,3.059,0,1.727,0,3.4-.023,5.105-.047.691-.023,1.781,0,2.419-.07.293-.044.372-.114.452-.324.054-.161.505-1.432.505-1.546,0-.254-.291-.347-.531-.347-2.77.114-5.531.184-8.269.184-.824,0-1.755,0-2.687-.023-2.5,0-5.636-.414-7.1-2.379a.292.292,0,0,1-.051-.161V96.135a.429.429,0,0,0-.442-.414H53.075a.438.438,0,0,0-.48.384v1.367a.43.43,0,0,0,.459.393h2.386a.312.312,0,0,1,.347.256v5.08a.331.331,0,0,1-.107.237m13.589-4.784V98.1a.293.293,0,0,1,.293-.3.189.189,0,0,1,.051,0H72.3a.31.31,0,0,1,.345.256.141.141,0,0,1,0,.044v.554a.294.294,0,0,1-.293.3H69.614a.31.31,0,0,1-.345-.256.141.141,0,0,1,0-.044m-5.874,0V98.1a.3.3,0,0,1,.3-.3.189.189,0,0,1,.051,0h2.579a.31.31,0,0,1,.345.256.14.14,0,0,1,0,.044v.554a.3.3,0,0,1-.3.3H63.738a.312.312,0,0,1-.347-.256v-.044Zm19.811,5.983v3.117a.426.426,0,0,0,.456.393H85.1a.438.438,0,0,0,.477-.375v-3.136a.3.3,0,0,1,.3-.3.189.189,0,0,1,.051,0h3.243a.439.439,0,0,0,.475-.389V102.7a.427.427,0,0,0-.442-.414h-3.28a.312.312,0,0,1-.347-.256v-.945a.3.3,0,0,1,.3-.3.189.189,0,0,1,.051,0h2.768a.44.44,0,0,0,.48-.384V93.849c0-.368.161-.414.372-.1a.484.484,0,0,0,.112.137l.158.279c.133.161.265.391.533.391a4.746,4.746,0,0,0,1.329-.715l.691-.533c.265-.184.424-.114.424.163v.508a.43.43,0,0,0,.459.393h6.535a.437.437,0,0,0,.48-.375v-.619c0-.23.079-.347.212-.347a.613.613,0,0,1,.319.14,7.907,7.907,0,0,0,2.049,1.25.426.426,0,0,0,.4-.254c.24-.393.505-.761.8-1.155a.13.13,0,0,0,.026-.1l.079-.163v-.1a.45.45,0,0,0-.237-.324A18.212,18.212,0,0,1,97.783,87a.613.613,0,0,0-.426-.207h-1.79a.482.482,0,0,0-.426.23,16.834,16.834,0,0,1-5.822,5.566.168.168,0,0,1-.214-.009l-.026-.037a.241.241,0,0,0-.161-.068H85.887a.31.31,0,0,1-.345-.256.141.141,0,0,1,0-.044v-.81a.3.3,0,0,1,.293-.3h3.4a.438.438,0,0,0,.48-.384v-1.2a.43.43,0,0,0-.442-.417H85.887a.308.308,0,0,1-.345-.256.141.141,0,0,1,0-.044V87.1a.431.431,0,0,0-.459-.393H83.654a.437.437,0,0,0-.477.375l0,.019v1.662a.293.293,0,0,1-.293.3.189.189,0,0,1-.051,0H79.8a.442.442,0,0,0-.48.386v1.208a.43.43,0,0,0,.442.417h3.073a.308.308,0,0,1,.345.256.141.141,0,0,1,0,.044v.808a.3.3,0,0,1-.3.3h-2.71a.437.437,0,0,0-.477.384v7.489a.429.429,0,0,0,.442.414h2.717a.312.312,0,0,1,.347.256v.945a.3.3,0,0,1-.3.3.188.188,0,0,1-.051,0H79.48a.438.438,0,0,0-.48.384v1.259a.43.43,0,0,0,.442.417h3.413a.31.31,0,0,1,.347.256v.044ZM93.953,91.98a17.167,17.167,0,0,0,2.314-2.565.34.34,0,0,1,.61,0,18.16,18.16,0,0,0,2.447,2.565c.372.324.265.531-.24.531h-4.9c-.48,0-.584-.207-.24-.531Zm-8.7,3.534V94.473a.3.3,0,0,1,.3-.3h1.248a.31.31,0,0,1,.345.256.141.141,0,0,1,0,.044v1.041a.3.3,0,0,1-.3.3H85.6a.312.312,0,0,1-.347-.256v-.044m-3.615,0V94.473a.293.293,0,0,1,.293-.3h1.222a.31.31,0,0,1,.345.256.141.141,0,0,1,0,.044v1.041a.294.294,0,0,1-.293.3H81.978a.31.31,0,0,1-.345-.256.14.14,0,0,1,0-.044m17.123,12.264a.466.466,0,0,0,.48.324,10.382,10.382,0,0,0,2.952-.277c.85-.347.9-1.041.9-1.709V95.837a.428.428,0,0,0-.442-.417h-1.232a.438.438,0,0,0-.48.384v10.311c0,.184-.112.254-.345.254H98.942c-.265,0-.531.07-.531.37a2.254,2.254,0,0,0,.161.507Zm-6.381-4.065h1.676a.31.31,0,0,1,.345.256.141.141,0,0,1,0,.044v2.314a.163.163,0,0,1-.109.161h-.054l-.112.023h-.629a.184.184,0,0,0-.112.023.3.3,0,0,0-.186.3v.042l.24.924a.541.541,0,0,0,.505.347c1.648,0,2.393-.277,2.393-1.8V96.2a.427.427,0,0,0-.442-.414.088.088,0,0,0-.035,0H90.568a.419.419,0,0,0-.454.375v11.519a.4.4,0,0,0,.412.393h1.024a.434.434,0,0,0,.477-.375l0-.019v-3.669a.292.292,0,0,1,.289-.3.224.224,0,0,1,.056,0m5.08.531a.43.43,0,0,0,.459.393h.978a.44.44,0,0,0,.477-.375v-7.5a.428.428,0,0,0-.442-.414h-.994a.437.437,0,0,0-.477.384v7.515ZM85.249,98.77V97.73a.3.3,0,0,1,.3-.3h1.248a.31.31,0,0,1,.345.256.141.141,0,0,1,0,.044V98.77a.3.3,0,0,1-.3.3H85.6a.312.312,0,0,1-.347-.256V98.77m-3.615,0V97.73a.293.293,0,0,1,.293-.3h1.222a.31.31,0,0,1,.345.256.141.141,0,0,1,0,.044V98.77a.294.294,0,0,1-.293.3H81.978a.31.31,0,0,1-.345-.256.14.14,0,0,1,0-.044m10.4-.163V97.8a.293.293,0,0,1,.293-.3.189.189,0,0,1,.051,0h1.676a.31.31,0,0,1,.345.256.141.141,0,0,1,0,.044v.808a.293.293,0,0,1-.293.3.189.189,0,0,1-.051,0H92.375a.31.31,0,0,1-.345-.256.14.14,0,0,1,0-.044m0,3.073V100.8a.293.293,0,0,1,.293-.3.189.189,0,0,1,.051,0h1.676a.308.308,0,0,1,.345.256.141.141,0,0,1,0,.044v.878a.294.294,0,0,1-.293.3H92.375a.31.31,0,0,1-.345-.256.14.14,0,0,1,0-.044m20.819-3.72c.212.417.452.833.691,1.225,0,.023,0,.023.026.07l.081.07c0,.023.026.023.026.047s.054.044.079.068l.135.07c.051,0,.109.023.158,0a3.494,3.494,0,0,0,1.329-1.339,41.336,41.336,0,0,0-3.11-4.228.375.375,0,0,1-.054-.163v-.23a.3.3,0,0,1,.3-.3h2.47a.437.437,0,0,0,.477-.384.066.066,0,0,0,0-.03V91.493a.424.424,0,0,0-.442-.414.088.088,0,0,0-.035,0h-2.421a.31.31,0,0,1-.345-.256.141.141,0,0,1,0-.044v-3.65a.431.431,0,0,0-.459-.393h-1.665a.437.437,0,0,0-.477.375l0,.019v3.65a.293.293,0,0,1-.293.3h-2.875a.437.437,0,0,0-.477.384v1.371a.425.425,0,0,0,.442.414h2.535a.3.3,0,0,1,.342.228.231.231,0,0,1-.023.142,20.173,20.173,0,0,1-3.7,7.575.168.168,0,0,1-.051.1l-.054.184v.116l.054.068c.026.07.026.116.051.116.293.417.533.831.778,1.25v.047l.158.186.186.1a.2.2,0,0,0,.161.023c.452-.14,1.09-1.339,1.648-2.519.212-.438.4-.9.584-1.315.161-.37.293-.577.372-.577.112,0,.158.23.158.673v8.092a.43.43,0,0,0,.459.393h1.669a.437.437,0,0,0,.48-.375V98.1c0-.417.079-.6.212-.6.1,0,.235.137.421.461m7.18,1.087a18.324,18.324,0,0,1-4.542,5.2c-.372.254-.745.508-1.143.761a.443.443,0,0,0-.24.347.516.516,0,0,0,.186.324c.186.186.4.37.584.531l.054.047a3.945,3.945,0,0,0,.426.482l.051.047a.475.475,0,0,0,.293.137.169.169,0,0,0,.112-.023l.186-.044a.026.026,0,0,0,.026-.023h.054a19.4,19.4,0,0,0,4.866-5.059c.186-.277.347-.44.48-.44s.212.21.212.6v5.825a.43.43,0,0,0,.459.393h1.669a.435.435,0,0,0,.477-.375V102c0-.463.081-.694.214-.694s.291.184.505.554a18.933,18.933,0,0,0,3.606,4.689l.054.023c0,.014.012.023.028.023l.212.1a.343.343,0,0,0,.161.023.681.681,0,0,0,.319-.161v-.051l1.169-1.057a.426.426,0,0,0,.186-.324.456.456,0,0,0-.212-.347c-.347-.3-.719-.577-1.092-.924a19.155,19.155,0,0,1-3.615-4.805c-.133-.254,0-.414.319-.414h3.59a.443.443,0,0,0,.48-.384v-1.3a.429.429,0,0,0-.442-.414h-5.143a.31.31,0,0,1-.345-.256.141.141,0,0,1,0-.044V93.295a.293.293,0,0,1,.293-.3h4.332a.441.441,0,0,0,.48-.384V91.286a.43.43,0,0,0-.442-.417h-4.318a.308.308,0,0,1-.345-.256.141.141,0,0,1,0-.044V87.128a.431.431,0,0,0-.459-.393H122.1a.437.437,0,0,0-.477.375l0,.019v3.441a.293.293,0,0,1-.293.3.189.189,0,0,1-.051,0H119.95a.318.318,0,0,1-.361-.249.257.257,0,0,1,.014-.119,11.292,11.292,0,0,0,.426-1.988.413.413,0,0,0-.347-.391h-.051c-.214-.023-.505-.1-.824-.14a6.108,6.108,0,0,0-.826-.1.424.424,0,0,0-.424.3v.047l-.081.345-.133.694a15.135,15.135,0,0,1-2.046,5.313.066.066,0,0,0-.028.047.356.356,0,0,0-.079.23.369.369,0,0,0,.265.347c.133.07.454.254.778.417a3.135,3.135,0,0,0,.743.345.518.518,0,0,0,.372-.184l.054-.047a14.082,14.082,0,0,0,1.3-2.54.365.365,0,0,1,.319-.207h2.256a.308.308,0,0,1,.345.256.127.127,0,0,1,0,.042v2.936a.294.294,0,0,1-.293.3h-5.343a.441.441,0,0,0-.48.384v1.3a.426.426,0,0,0,.442.414.1.1,0,0,0,.037,0h3.723c.349,0,.477.168.319.421m26.218-5.659c.319,3.671,1.541,14.783,7.284,14.783,2.5,0,3.033-1.665,3.376-3.4a8.632,8.632,0,0,0,.242-1.685c0-.254-.081-.3-.293-.417H156.8c-.13-.068-.505-.254-.847-.438a4.146,4.146,0,0,0-.826-.393.325.325,0,0,0-.319.207l-.051.14v.047l-.028.114c-.028.233-.054,1.11-.186,1.918-.161.831-.4,1.5-.8,1.5a2.31,2.31,0,0,1-1.648-1.017c-1.918-2.447-2.74-8.153-3.031-11.317a.3.3,0,0,1,.289-.321.22.22,0,0,1,.056,0h6.674a.444.444,0,0,0,.48-.384V91.239a.426.426,0,0,0-.442-.414.1.1,0,0,0-.037,0H149.2a.33.33,0,0,1-.347-.279c-.026-.761-.026-1.523-.026-2.309,0-.324.026-.691,0-1.015a.43.43,0,0,0-.459-.393h-1.939a.434.434,0,0,0-.477.375l0,.019c0,1.085.054,2.214.081,3.28a.269.269,0,0,1-.233.319.375.375,0,0,1-.114,0h-12.55a.441.441,0,0,0-.48.384v1.485a.43.43,0,0,0,.442.417h12.8a.33.33,0,0,1,.349.277m4.281-5.659a.343.343,0,0,0,.026.647,32.8,32.8,0,0,1,2.924,2.286.6.6,0,0,0,.347.163.4.4,0,0,0,.319-.14h.054c.133-.116.426-.277.717-.508l.345-.3a.4.4,0,0,1,.054-.07l.133-.207v-.047l.028-.07a.513.513,0,0,0-.133-.23,16.912,16.912,0,0,0-3.513-2.356,1.6,1.6,0,0,0-.687.347Zm-12.765,16.7-4.542.694a.4.4,0,0,0-.372.393l.028.114v.047l.477,1.478a.444.444,0,0,0,.452.277h.133c2.607-.48,5.24-.992,7.866-1.5,1.357-.254,2.712-.508,4.069-.808a.417.417,0,0,0,.372-.393,10.61,10.61,0,0,0-.133-1.269.406.406,0,0,0-.452-.393c-.161,0-1.3.184-2.421.393-.775.137-1.595.277-2.1.368a.335.335,0,0,1-.41-.163.253.253,0,0,1-.016-.137V98.584a.3.3,0,0,1,.3-.3h3.878a.438.438,0,0,0,.48-.384V96.459a.429.429,0,0,0-.442-.414H134.091a.437.437,0,0,0-.477.384.066.066,0,0,0,0,.03v1.411a.425.425,0,0,0,.442.414h3.653a.31.31,0,0,1,.345.256.141.141,0,0,1,0,.044v5.543a.3.3,0,0,1-.289.3m40.282-9.955a25.533,25.533,0,0,0,3.965,1.942.481.481,0,0,0,.37-.21c.375-.438.694-.9,1.038-1.315l.081-.116c.026-.023.026-.047.051-.047l.026-.114a.117.117,0,0,0,.028-.1c-.028-.068-.054-.137-.109-.161l-.054-.047a.8.8,0,0,0-.189-.1c-.026-.023-.026-.023-.051-.023a26.485,26.485,0,0,1-10.718-7.254l-.049-.044a.474.474,0,0,0-.372-.14h-2.146a.474.474,0,0,0-.375.184,25.208,25.208,0,0,1-7.864,6.4c-.8.438-1.62.761-2.447,1.155a.472.472,0,0,0-.319.37.488.488,0,0,0,.158.321c.319.37.612.74.9,1.134,0,.021,0,.021.028.044a.433.433,0,0,0,.375.186A19.638,19.638,0,0,0,164.25,94.6a.558.558,0,0,1,.3-.1c.133,0,.24.116.24.347v.624a.426.426,0,0,0,.442.414.088.088,0,0,0,.035,0h11.78a.438.438,0,0,0,.48-.384v-.794c0-.23.109-.347.237-.347A.522.522,0,0,1,178.046,94.473ZM166.457,93.2a23.931,23.931,0,0,0,4.358-3.834.338.338,0,0,1,.419-.128.315.315,0,0,1,.137.107A26.726,26.726,0,0,0,176,93.2c.5.347.426.556-.214.556h-9.121C166.054,93.758,165.977,93.549,166.457,93.2Zm1.143,11.3c.847-1.315,1.592-2.656,2.309-3.995a.434.434,0,0,1,.319-.163h11.624a.439.439,0,0,0,.477-.384.067.067,0,0,0,0-.03V98.561a.424.424,0,0,0-.442-.414H160.658a.437.437,0,0,0-.477.384v1.394a.423.423,0,0,0,.44.414h5.65c.319,0,.424.163.345.393a31.493,31.493,0,0,1-2.184,4.158.452.452,0,0,1-.291.137l-3.243.1a.427.427,0,0,0-.477.352.285.285,0,0,0,0,.063c0,.21.054.482.077.74v.047c.054.23.135.508.161.715a.43.43,0,0,0,.477.347c5.72-.207,11.438-.393,17.127-.694a.347.347,0,0,1,.291.14c.268.347.587.761.85,1.038,0,.023,0,.023.028.047a.662.662,0,0,0,.37.14,3.832,3.832,0,0,0,.931-.37c.4-.23.8-.44.959-.531a.391.391,0,0,0,.237-.324.484.484,0,0,0-.047-.212c-.026-.023-.026-.07-.056-.07a33.277,33.277,0,0,0-5.743-5.5h-.023a.572.572,0,0,0-.319-.1,2.852,2.852,0,0,0-.826.3c-.345.163-.719.324-.824.37a.44.44,0,0,0-.291.37.449.449,0,0,0,.184.324c.694.624,1.408,1.225,2.077,1.848.319.277.21.461-.242.48l-7.894.277c-.379.033-.484-.154-.324-.431m25.5-4.942c.636.6,1.273,1.2,1.942,1.8l.077.047c0,.023.056.023.084.044l.109.023a.162.162,0,0,0,.109.023.684.684,0,0,0,.319-.184l.612-.647c.026-.023.026-.023.026-.047a2.4,2.4,0,0,0,.454-.715.418.418,0,0,0-.189-.324,12.641,12.641,0,0,0-1.834-1.408l-1.087-.81c-.189-.137-.375-.254-.554-.391a.255.255,0,0,1-.086-.384l.03-.033a21.882,21.882,0,0,0,2.952-4.435.121.121,0,0,0,.026-.1l.03-.1a.331.331,0,0,0-.189-.345c-.161-.1-.4-.256-.612-.393h-.051a1.923,1.923,0,0,0-.694-.23c-.026-.023-.077,0-.107,0l-.135.023a.124.124,0,0,1-.081.023h-1.383a.307.307,0,0,1-.342-.256.14.14,0,0,1,0-.044V87.121a.431.431,0,0,0-.459-.393H190.34a.433.433,0,0,0-.475.375v3.6a.3.3,0,0,1-.3.3h-3.252a.437.437,0,0,0-.48.384v1.325a.427.427,0,0,0,.442.414.1.1,0,0,0,.037,0h5.869c.347,0,.48.186.293.44a20.709,20.709,0,0,1-7.154,6.328.391.391,0,0,0-.263.347.433.433,0,0,0,.109.277c.291.44.533.831.775,1.252a.464.464,0,0,0,.424.277,12.173,12.173,0,0,0,2.9-1.848.533.533,0,0,1,.349-.161c.158,0,.237.137.237.391v7.35a.431.431,0,0,0,.459.393h1.723a.438.438,0,0,0,.477-.375V99.762c0-.254.081-.391.242-.391a.647.647,0,0,1,.345.184m8.244,5.678H195.7a.44.44,0,0,0-.48.384v1.49a.43.43,0,0,0,.442.417h14.261a.441.441,0,0,0,.482-.384v-1.488a.43.43,0,0,0-.445-.414.1.1,0,0,0-.037,0h-5.157a.307.307,0,0,1-.345-.256.14.14,0,0,1,0-.044V96.6a.293.293,0,0,1,.293-.3.188.188,0,0,1,.051,0h4.572a.442.442,0,0,0,.482-.384V94.45a.43.43,0,0,0-.445-.414.1.1,0,0,0-.037,0h-4.572a.307.307,0,0,1-.345-.256.14.14,0,0,1,0-.044V87.312a.431.431,0,0,0-.459-.391h-1.8a.435.435,0,0,0-.477.375l0,.016v6.423a.291.291,0,0,1-.293.3H196.74a.424.424,0,0,0-.452.4v1.45a.424.424,0,0,0,.431.417h4.623a.306.306,0,0,1,.342.256.141.141,0,0,1,0,.044v8.339a.291.291,0,0,1-.293.3h-.049Z" transform="translate(-0.001 -86.711)" fill="#1b1f23"/></svg>