<svg xmlns="http://www.w3.org/2000/svg" xmlns:xlink="http://www.w3.org/1999/xlink" width="239.686" height="54.76" viewBox="0 0 239.686 54.76"><defs><linearGradient id="a" x1="-0.026" y1="1" x2="1" y2="1" gradientUnits="objectBoundingBox"><stop offset="0" stop-color="#431598"/><stop offset="1" stop-color="#209ba5"/></linearGradient></defs><path d="M1.11,0,12.284-52.54h21.83a11.128,11.128,0,0,1,5.18,1.184,11.862,11.862,0,0,1,3.885,3.182,14.116,14.116,0,0,1,2.4,4.551,17.312,17.312,0,0,1,.814,5.291,17.189,17.189,0,0,1-1.036,5.846,21.832,21.832,0,0,1-2.812,5.365,21.262,21.262,0,0,1-4.181,4.366,16.4,16.4,0,0,1-5.217,2.775L40.552,0h-9.4L24.346-18.278H13.32L9.472,0ZM28.268-25.6a7.115,7.115,0,0,0,3.589-1,10.829,10.829,0,0,0,3.071-2.664,13.288,13.288,0,0,0,2.109-3.811,12.736,12.736,0,0,0,.777-4.366,9.134,9.134,0,0,0-1.628-5.55,4.944,4.944,0,0,0-4.144-2.22H19.092L14.874-25.6ZM63.27.74A16.072,16.072,0,0,1,56.721-.518a14.322,14.322,0,0,1-4.847-3.441,14.664,14.664,0,0,1-3.034-5.18A19.69,19.69,0,0,1,47.8-15.614a22.966,22.966,0,0,1,1.813-9.028,23.8,23.8,0,0,1,5.032-7.548,24.765,24.765,0,0,1,7.622-5.217,23.1,23.1,0,0,1,9.509-1.961q5.994,0,9.583,2.7t3.589,7.955q0,12.136-21.682,12.136-3.182,0-7.178-.222v1.332a14.771,14.771,0,0,0,.518,4,9.956,9.956,0,0,0,1.554,3.256,6.99,6.99,0,0,0,2.664,2.183,8.853,8.853,0,0,0,3.848.777,12.81,12.81,0,0,0,6.142-1.591,12.139,12.139,0,0,0,4.662-4.329l6.438,2a19.013,19.013,0,0,1-3.441,4.033A22.666,22.666,0,0,1,74-2.035,24.864,24.864,0,0,1,68.82,0,21.182,21.182,0,0,1,63.27.74Zm7.474-34.114a12.576,12.576,0,0,0-4.884.925,13.413,13.413,0,0,0-3.922,2.479,15.128,15.128,0,0,0-2.886,3.589,22.738,22.738,0,0,0-1.924,4.255q3.4.222,6.29.222A37.908,37.908,0,0,0,70-22.385a15.787,15.787,0,0,0,4.329-1.332A5.512,5.512,0,0,0,76.7-25.789a5.316,5.316,0,0,0,.7-2.7,4.131,4.131,0,0,0-1.776-3.7A8.721,8.721,0,0,0,70.744-33.374ZM103.452.74a15.93,15.93,0,0,1-6.586-1.3A14.032,14.032,0,0,1,92.019-4.07a14.949,14.949,0,0,1-2.96-5.18,19.539,19.539,0,0,1-1-6.29,22.784,22.784,0,0,1,1.813-8.954A24.246,24.246,0,0,1,94.9-32.079a25.237,25.237,0,0,1,7.548-5.291,22.239,22.239,0,0,1,9.435-2,15.3,15.3,0,0,1,9.324,2.627,12.515,12.515,0,0,1,4.736,6.993l-8.436,2.516a7.475,7.475,0,0,0-2.7-3.811,7.54,7.54,0,0,0-4.551-1.369,11.5,11.5,0,0,0-5.143,1.221,14.207,14.207,0,0,0-4.4,3.4,17.2,17.2,0,0,0-3.071,5.069A16.676,16.676,0,0,0,96.5-16.5a13.658,13.658,0,0,0,.592,4.107,9.734,9.734,0,0,0,1.7,3.256,8.125,8.125,0,0,0,2.627,2.146,7.277,7.277,0,0,0,3.367.777,10.07,10.07,0,0,0,2.812-.407,12.349,12.349,0,0,0,2.7-1.147,12.584,12.584,0,0,0,2.331-1.7,9.507,9.507,0,0,0,1.7-2.072L121.8-9.176a19.119,19.119,0,0,1-3.293,3.959,22.861,22.861,0,0,1-4.329,3.145A22.161,22.161,0,0,1,109.076,0,21.46,21.46,0,0,1,103.452.74ZM134.606-38.7h7.548l-1.924,8.658a25.489,25.489,0,0,1,6.364-6.438,12.378,12.378,0,0,1,7.03-2.442q.74,0,1.147.037a7.362,7.362,0,0,1,.777.111l-1.554,7.1a18.838,18.838,0,0,0-8.288,2.183,16.151,16.151,0,0,0-6.216,5.809L134.458,0h-8.14ZM164.5.74q-9.028,0-9.028-9.62a29.189,29.189,0,0,1,.74-6.142L161.32-38.7h8.066L164.65-16.65a20.833,20.833,0,0,0-.518,4.44q0,5.994,5.106,5.994a11.935,11.935,0,0,0,6.549-2.146,19.422,19.422,0,0,0,5.809-6.216L186.7-38.7h8.14L188.7-9.62a3.652,3.652,0,0,0-.222,1.11q0,1.406,1.7,1.554L188.774,0,186.85.259a11.038,11.038,0,0,1-1.48.111,5.768,5.768,0,0,1-3.478-.925,3.222,3.222,0,0,1-1.258-2.775,10.7,10.7,0,0,1,.148-1.554q.148-.962.518-2.96a22.761,22.761,0,0,1-7.7,6.4A20.1,20.1,0,0,1,164.5.74ZM205.054-38.7h8.14L204.906,0h-8.14Zm3.182-15.318h8.14l-1.85,8.954h-8.14ZM225.4.592a9,9,0,0,1-5.328-1.517,5.522,5.522,0,0,1-2.146-4.847,10.03,10.03,0,0,1,.3-2.442l5.18-24.2h-4.958l1.406-6.29h4.81L227.4-51.43h8.14L232.8-38.7H240.8l-1.332,6.29h-7.918L226.958-10.8a6.233,6.233,0,0,0-.148,1.11,2.508,2.508,0,0,0,.888,2.146,3.474,3.474,0,0,0,2.146.666,9.069,9.069,0,0,0,3.256-.592q1.554-.592,2.368-.962l.3,6.438A18.007,18.007,0,0,1,231.25-.185,21.849,21.849,0,0,1,225.4.592Z" transform="translate(-1.11 54.02)" fill="url(#a)" style="mix-blend-mode:screen;isolation:isolate"/></svg>